<?xml version="1.0" encoding="us-ascii" standalone="no"?><svg xmlns="http://www.w3.org/2000/svg" xmlns:xlink="http://www.w3.org/1999/xlink" contentStyleType="text/css" height="1377px" preserveAspectRatio="none" style="width:1333px;height:1377px;background:#FFFFFF;" version="1.1" viewBox="0 0 1333 1377" width="1333px" zoomAndPan="magnify"><defs/><g><text fill="#000000" font-family="sans-serif" font-size="14" font-weight="bold" lengthAdjust="spacing" textLength="5" x="680.75" y="28.5352">&#160;</text><text fill="#000000" font-family="sans-serif" font-size="14" font-weight="bold" lengthAdjust="spacing" textLength="5" x="680.75" y="45.0234">&#160;</text><text fill="#000000" font-family="sans-serif" font-size="14" font-weight="bold" lengthAdjust="spacing" textLength="5" x="680.75" y="61.5117">&#160;</text><rect fill="#6FA8DC" height="1287.5508" style="stroke:#181818;stroke-width:0.5;" width="641" x="288" y="76.4648"/><text fill="#000000" font-family="sans-serif" font-size="13" font-weight="bold" lengthAdjust="spacing" textLength="153" x="530" y="89.0332">Amplify Open Banking</text><rect fill="#94C47D" height="1287.5508" style="stroke:#181818;stroke-width:0.5;" width="188" x="971" y="76.4648"/><text fill="#000000" font-family="sans-serif" font-size="13" font-weight="bold" lengthAdjust="spacing" textLength="178" x="974" y="89.0332">Core Banking Applications</text><rect fill="none" height="640.166" style="stroke:#000000;stroke-width:1.5;" width="1055" x="272" y="641.2285"/><rect fill="none" height="551.2344" style="stroke:#000000;stroke-width:1.5;" width="1035" x="282" y="723.1602"/><line style="stroke:#181818;stroke-width:0.5;stroke-dasharray:5.0,5.0;" x1="58" x2="58" y1="143.752" y2="1370.0156"/><line style="stroke:#181818;stroke-width:0.5;stroke-dasharray:5.0,5.0;" x1="327" x2="327" y1="143.752" y2="1370.0156"/><line style="stroke:#181818;stroke-width:0.5;stroke-dasharray:5.0,5.0;" x1="582.5" x2="582.5" y1="143.752" y2="1370.0156"/><line style="stroke:#181818;stroke-width:0.5;stroke-dasharray:5.0,5.0;" x1="870" x2="870" y1="143.752" y2="1370.0156"/><line style="stroke:#181818;stroke-width:0.5;stroke-dasharray:5.0,5.0;" x1="1064.5" x2="1064.5" y1="143.752" y2="1370.0156"/><rect fill="#E2E2F0" height="46.9766" rx="2.5" ry="2.5" style="stroke:#181818;stroke-width:0.5;" width="77" x="20" y="95.7754"/><text fill="#000000" font-family="sans-serif" font-size="14" lengthAdjust="spacing" textLength="31" x="43" y="116.3105">Data</text><text fill="#000000" font-family="sans-serif" font-size="14" lengthAdjust="spacing" textLength="63" x="27" y="132.7988">Recipient</text><rect fill="#E2E2F0" height="46.9766" rx="2.5" ry="2.5" style="stroke:#181818;stroke-width:0.5;" width="71" x="292" y="95.7754"/><text fill="#000000" font-family="sans-serif" font-size="14" lengthAdjust="spacing" textLength="22" x="316.5" y="116.3105">API</text><text fill="#000000" font-family="sans-serif" font-size="14" lengthAdjust="spacing" textLength="57" x="299" y="132.7988">Gateway</text><rect fill="#E2E2F0" height="46.9766" rx="2.5" ry="2.5" style="stroke:#181818;stroke-width:0.5;" width="106" x="529.5" y="95.7754"/><text fill="#000000" font-family="sans-serif" font-size="14" lengthAdjust="spacing" textLength="92" x="536.5" y="116.3105">Core Banking</text><text fill="#000000" font-family="sans-serif" font-size="14" lengthAdjust="spacing" textLength="72" x="546.5" y="132.7988">Connector</text><rect fill="#E2E2F0" height="46.9766" rx="2.5" ry="2.5" style="stroke:#181818;stroke-width:0.5;" width="109" x="816" y="95.7754"/><text fill="#000000" font-family="sans-serif" font-size="14" lengthAdjust="spacing" textLength="95" x="823" y="116.3105">Authorization</text><text fill="#000000" font-family="sans-serif" font-size="14" lengthAdjust="spacing" textLength="43" x="849" y="132.7988">Server</text><rect fill="#E2E2F0" height="46.9766" rx="2.5" ry="2.5" style="stroke:#181818;stroke-width:0.5;" width="69" x="1030.5" y="95.7754"/><text fill="#000000" font-family="sans-serif" font-size="14" lengthAdjust="spacing" textLength="55" x="1037.5" y="116.3105">Banking</text><text fill="#000000" font-family="sans-serif" font-size="14" lengthAdjust="spacing" textLength="55" x="1037.5" y="132.7988">Systems</text><path d="M63,158.752 L63,333.752 L519,333.752 L519,168.752 L509,158.752 L63,158.752 " fill="#FEFFDD" style="stroke:#181818;stroke-width:0.5;"/><path d="M509,158.752 L509,168.752 L519,168.752 L509,158.752 " fill="#FEFFDD" style="stroke:#181818;stroke-width:0.5;"/><text fill="#000000" font-family="sans-serif" font-size="13" lengthAdjust="spacing" textLength="57" x="69" y="176.3203">Overview</text><line style="stroke:#181818;stroke-width:1.0;" x1="64" x2="518" y1="179.0625" y2="179.0625"/><line style="stroke:#181818;stroke-width:1.0;" x1="64" x2="518" y1="181.0625" y2="181.0625"/><text fill="#000000" font-family="sans-serif" font-size="13" lengthAdjust="spacing" textLength="376" x="69" y="195.6309">Filtering responses for account/permissions at the Gateway</text><text fill="#000000" font-family="sans-serif" font-size="13" lengthAdjust="spacing" textLength="391" x="69" y="210.9414">is pragmatic in many use cases but is ultimately not scaleable</text><text fill="#000000" font-family="sans-serif" font-size="13" lengthAdjust="spacing" textLength="385" x="69" y="226.252">due to load and determinism for features such as pagination.</text><text fill="#000000" font-family="sans-serif" font-size="13" lengthAdjust="spacing" textLength="428" x="69" y="241.5625">It should therefore be implemented as close to the system of record</text><text fill="#000000" font-family="sans-serif" font-size="13" lengthAdjust="spacing" textLength="435" x="69" y="256.873">as possible i.e. Core Banking Applications. The order of preference in</text><text fill="#000000" font-family="sans-serif" font-size="13" lengthAdjust="spacing" textLength="135" x="69" y="272.1836">terms of solutions is:</text><line style="stroke:#000000;stroke-width:0.5;" x1="69" x2="69" y1="276.9258" y2="276.9258"/><line style="stroke:#000000;stroke-width:0.5;" x1="69" x2="69" y1="276.9258" y2="276.9258"/><line style="stroke:#000000;stroke-width:0.5;" x1="69" x2="69" y1="276.9258" y2="276.9258"/><text fill="#000000" font-family="sans-serif" font-size="13" lengthAdjust="spacing" textLength="255" x="69" y="291.4941">1. Filter at the Core Banking Application.</text><text fill="#000000" font-family="sans-serif" font-size="13" lengthAdjust="spacing" textLength="360" x="69" y="306.8047">2. Filter at a microservice capable of "stateful" behaviour.</text><text fill="#000000" font-family="sans-serif" font-size="13" lengthAdjust="spacing" textLength="148" x="69" y="322.1152">3. Filter at the Gateway.</text><polygon fill="#181818" points="315.5,371.4785,325.5,375.4785,315.5,379.4785,319.5,375.4785" style="stroke:#181818;stroke-width:1.0;"/><line style="stroke:#181818;stroke-width:1.0;" x1="58.5" x2="321.5" y1="375.4785" y2="375.4785"/><text fill="#000000" font-family="sans-serif" font-size="13" lengthAdjust="spacing" textLength="245" x="65.5" y="355.4258">Request Account Information Resource</text><text fill="#000000" font-family="sans-serif" font-size="13" lengthAdjust="spacing" textLength="152" x="65.5" y="370.7363">with valid Access Token</text><polygon fill="#181818" points="858.5,400.7891,868.5,404.7891,858.5,408.7891,862.5,404.7891" style="stroke:#181818;stroke-width:1.0;"/><line style="stroke:#181818;stroke-width:1.0;" x1="327.5" x2="864.5" y1="404.7891" y2="404.7891"/><text fill="#000000" font-family="sans-serif" font-size="13" lengthAdjust="spacing" textLength="301" x="334.5" y="400.0469">Call JWKS Endpoint to validate JWT access token</text><polygon fill="#181818" points="338.5,430.0996,328.5,434.0996,338.5,438.0996,334.5,434.0996" style="stroke:#181818;stroke-width:1.0;"/><line style="stroke:#181818;stroke-width:1.0;stroke-dasharray:2.0,2.0;" x1="332.5" x2="869.5" y1="434.0996" y2="434.0996"/><text fill="#000000" font-family="sans-serif" font-size="13" lengthAdjust="spacing" textLength="75" x="344.5" y="429.3574">Return JWKS</text><line style="stroke:#181818;stroke-width:1.0;" x1="327.5" x2="369.5" y1="463.4102" y2="463.4102"/><line style="stroke:#181818;stroke-width:1.0;" x1="369.5" x2="369.5" y1="463.4102" y2="476.4102"/><line style="stroke:#181818;stroke-width:1.0;" x1="328.5" x2="369.5" y1="476.4102" y2="476.4102"/><polygon fill="#181818" points="338.5,472.4102,328.5,476.4102,338.5,480.4102,334.5,476.4102" style="stroke:#181818;stroke-width:1.0;"/><text fill="#000000" font-family="sans-serif" font-size="13" lengthAdjust="spacing" textLength="186" x="334.5" y="458.668">Validate token and get claims</text><path d="M63,513.7207 L63,584.7207 L410,584.7207 L410,523.7207 L400,513.7207 L63,513.7207 " fill="#FEFFDD" style="stroke:#181818;stroke-width:0.5;"/><path d="M400,513.7207 L400,523.7207 L410,523.7207 L400,513.7207 " fill="#FEFFDD" style="stroke:#181818;stroke-width:0.5;"/><text fill="#000000" font-family="sans-serif" font-size="13" lengthAdjust="spacing" textLength="307" x="69" y="531.2891">In some cases the permissions are binary i.e. the</text><text fill="#000000" font-family="sans-serif" font-size="13" lengthAdjust="spacing" textLength="298" x="69" y="546.5996">DR does or does not have permission to access</text><text fill="#000000" font-family="sans-serif" font-size="13" lengthAdjust="spacing" textLength="304" x="69" y="561.9102">a given endpoint. In such cases the Gateway can</text><text fill="#000000" font-family="sans-serif" font-size="13" lengthAdjust="spacing" textLength="326" x="69" y="577.2207">immediately respond without going to the backend.</text><polygon fill="#181818" points="69.5,607.2734,59.5,611.2734,69.5,615.2734,65.5,611.2734" style="stroke:#181818;stroke-width:1.0;"/><line style="stroke:#181818;stroke-width:1.0;stroke-dasharray:2.0,2.0;" x1="63.5" x2="326.5" y1="611.2734" y2="611.2734"/><text fill="#000000" font-family="sans-serif" font-size="13" lengthAdjust="spacing" textLength="188" x="75.5" y="606.5313">Respond with 403 (Forbidden)</text><path d="M272,641.2285 L334,641.2285 L334,648.5391 L324,658.5391 L272,658.5391 L272,641.2285 " fill="#EEEEEE" style="stroke:#000000;stroke-width:1.5;"/><rect fill="none" height="640.166" style="stroke:#000000;stroke-width:1.5;" width="1055" x="272" y="641.2285"/><text fill="#000000" font-family="sans-serif" font-size="13" font-weight="bold" lengthAdjust="spacing" textLength="17" x="287" y="654.7969">alt</text><text fill="#000000" font-family="sans-serif" font-size="11" font-weight="bold" lengthAdjust="spacing" textLength="226" x="349" y="653.8633">[Filtering is performed outside Gateway]</text><line style="stroke:#181818;stroke-width:1.0;" x1="327.5" x2="369.5" y1="695.1602" y2="695.1602"/><line style="stroke:#181818;stroke-width:1.0;" x1="369.5" x2="369.5" y1="695.1602" y2="708.1602"/><line style="stroke:#181818;stroke-width:1.0;" x1="328.5" x2="369.5" y1="708.1602" y2="708.1602"/><polygon fill="#181818" points="338.5,704.1602,328.5,708.1602,338.5,712.1602,334.5,708.1602" style="stroke:#181818;stroke-width:1.0;"/><text fill="#000000" font-family="sans-serif" font-size="13" lengthAdjust="spacing" textLength="108" x="334.5" y="675.1074">Augment request</text><text fill="#000000" font-family="sans-serif" font-size="13" lengthAdjust="spacing" textLength="241" x="334.5" y="690.418">with consented accounts/permissions</text><path d="M282,723.1602 L344,723.1602 L344,730.4707 L334,740.4707 L282,740.4707 L282,723.1602 " fill="#EEEEEE" style="stroke:#000000;stroke-width:1.5;"/><rect fill="none" height="551.2344" style="stroke:#000000;stroke-width:1.5;" width="1035" x="282" y="723.1602"/><text fill="#000000" font-family="sans-serif" font-size="13" font-weight="bold" lengthAdjust="spacing" textLength="17" x="297" y="736.7285">alt</text><text fill="#000000" font-family="sans-serif" font-size="11" font-weight="bold" lengthAdjust="spacing" textLength="293" x="359" y="735.7949">[Filtering is performed at Core Banking Application]</text><polygon fill="#181818" points="570.5,773.0918,580.5,777.0918,570.5,781.0918,574.5,777.0918" style="stroke:#181818;stroke-width:1.0;"/><line style="stroke:#181818;stroke-width:1.0;" x1="327.5" x2="576.5" y1="777.0918" y2="777.0918"/><text fill="#000000" font-family="sans-serif" font-size="13" lengthAdjust="spacing" textLength="132" x="334.5" y="757.0391">Forward request with</text><text fill="#000000" font-family="sans-serif" font-size="13" lengthAdjust="spacing" textLength="210" x="334.5" y="772.3496">consented accounts/permissions</text><line style="stroke:#181818;stroke-width:1.0;" x1="582.5" x2="624.5" y1="806.4023" y2="806.4023"/><line style="stroke:#181818;stroke-width:1.0;" x1="624.5" x2="624.5" y1="806.4023" y2="819.4023"/><line style="stroke:#181818;stroke-width:1.0;" x1="583.5" x2="624.5" y1="819.4023" y2="819.4023"/><polygon fill="#181818" points="593.5,815.4023,583.5,819.4023,593.5,823.4023,589.5,819.4023" style="stroke:#181818;stroke-width:1.0;"/><text fill="#000000" font-family="sans-serif" font-size="13" lengthAdjust="spacing" textLength="243" x="589.5" y="801.6602">Create request for consented accounts</text><polygon fill="#181818" points="1053,844.7129,1063,848.7129,1053,852.7129,1057,848.7129" style="stroke:#181818;stroke-width:1.0;"/><line style="stroke:#181818;stroke-width:1.0;" x1="582.5" x2="1059" y1="848.7129" y2="848.7129"/><text fill="#000000" font-family="sans-serif" font-size="13" lengthAdjust="spacing" textLength="233" x="589.5" y="843.9707">Request data for consented accounts</text><line style="stroke:#181818;stroke-width:1.0;" x1="1065" x2="1107" y1="878.0234" y2="878.0234"/><line style="stroke:#181818;stroke-width:1.0;" x1="1107" x2="1107" y1="878.0234" y2="891.0234"/><line style="stroke:#181818;stroke-width:1.0;" x1="1066" x2="1107" y1="891.0234" y2="891.0234"/><polygon fill="#181818" points="1076,887.0234,1066,891.0234,1076,895.0234,1072,891.0234" style="stroke:#181818;stroke-width:1.0;"/><text fill="#000000" font-family="sans-serif" font-size="13" lengthAdjust="spacing" textLength="233" x="1072" y="873.2813">Retrieve data for consented accounts</text><line style="stroke:#181818;stroke-width:1.0;" x1="1065" x2="1107" y1="920.334" y2="920.334"/><line style="stroke:#181818;stroke-width:1.0;" x1="1107" x2="1107" y1="920.334" y2="933.334"/><line style="stroke:#181818;stroke-width:1.0;" x1="1066" x2="1107" y1="933.334" y2="933.334"/><polygon fill="#181818" points="1076,929.334,1066,933.334,1076,937.334,1072,933.334" style="stroke:#181818;stroke-width:1.0;"/><text fill="#000000" font-family="sans-serif" font-size="13" lengthAdjust="spacing" textLength="231" x="1072" y="915.5918">Apply permissions to requested data</text><polygon fill="#181818" points="593.5,958.6445,583.5,962.6445,593.5,966.6445,589.5,962.6445" style="stroke:#181818;stroke-width:1.0;"/><line style="stroke:#181818;stroke-width:1.0;stroke-dasharray:2.0,2.0;" x1="587.5" x2="1064" y1="962.6445" y2="962.6445"/><text fill="#000000" font-family="sans-serif" font-size="13" lengthAdjust="spacing" textLength="224" x="599.5" y="957.9023">Return data for consented accounts</text><polygon fill="#181818" points="338.5,987.9551,328.5,991.9551,338.5,995.9551,334.5,991.9551" style="stroke:#181818;stroke-width:1.0;"/><line style="stroke:#181818;stroke-width:1.0;stroke-dasharray:2.0,2.0;" x1="332.5" x2="581.5" y1="991.9551" y2="991.9551"/><text fill="#000000" font-family="sans-serif" font-size="13" lengthAdjust="spacing" textLength="102" x="344.5" y="987.2129">Return response</text><line style="stroke:#000000;stroke-width:1.0;stroke-dasharray:2.0,2.0;" x1="282" x2="1317" y1="1000.9551" y2="1000.9551"/><text fill="#000000" font-family="sans-serif" font-size="11" font-weight="bold" lengthAdjust="spacing" textLength="286" x="287" y="1011.5898">[Filtering is performed at Core Banking Connector]</text><polygon fill="#181818" points="570.5,1047.5313,580.5,1051.5313,570.5,1055.5313,574.5,1051.5313" style="stroke:#181818;stroke-width:1.0;"/><line style="stroke:#181818;stroke-width:1.0;" x1="327.5" x2="576.5" y1="1051.5313" y2="1051.5313"/><text fill="#000000" font-family="sans-serif" font-size="13" lengthAdjust="spacing" textLength="132" x="334.5" y="1031.4785">Forward request with</text><text fill="#000000" font-family="sans-serif" font-size="13" lengthAdjust="spacing" textLength="210" x="334.5" y="1046.7891">consented accounts/permissions</text><line style="stroke:#181818;stroke-width:1.0;" x1="582.5" x2="624.5" y1="1080.8418" y2="1080.8418"/><line style="stroke:#181818;stroke-width:1.0;" x1="624.5" x2="624.5" y1="1080.8418" y2="1093.8418"/><line style="stroke:#181818;stroke-width:1.0;" x1="583.5" x2="624.5" y1="1093.8418" y2="1093.8418"/><polygon fill="#181818" points="593.5,1089.8418,583.5,1093.8418,593.5,1097.8418,589.5,1093.8418" style="stroke:#181818;stroke-width:1.0;"/><text fill="#000000" font-family="sans-serif" font-size="13" lengthAdjust="spacing" textLength="243" x="589.5" y="1076.0996">Create request for consented accounts</text><polygon fill="#181818" points="1053,1119.1523,1063,1123.1523,1053,1127.1523,1057,1123.1523" style="stroke:#181818;stroke-width:1.0;"/><line style="stroke:#181818;stroke-width:1.0;" x1="582.5" x2="1059" y1="1123.1523" y2="1123.1523"/><text fill="#000000" font-family="sans-serif" font-size="13" lengthAdjust="spacing" textLength="233" x="589.5" y="1118.4102">Request data for consented accounts</text><line style="stroke:#181818;stroke-width:1.0;" x1="1065" x2="1107" y1="1152.4629" y2="1152.4629"/><line style="stroke:#181818;stroke-width:1.0;" x1="1107" x2="1107" y1="1152.4629" y2="1165.4629"/><line style="stroke:#181818;stroke-width:1.0;" x1="1066" x2="1107" y1="1165.4629" y2="1165.4629"/><polygon fill="#181818" points="1076,1161.4629,1066,1165.4629,1076,1169.4629,1072,1165.4629" style="stroke:#181818;stroke-width:1.0;"/><text fill="#000000" font-family="sans-serif" font-size="13" lengthAdjust="spacing" textLength="233" x="1072" y="1147.7207">Retrieve data for consented accounts</text><polygon fill="#181818" points="593.5,1190.7734,583.5,1194.7734,593.5,1198.7734,589.5,1194.7734" style="stroke:#181818;stroke-width:1.0;"/><line style="stroke:#181818;stroke-width:1.0;stroke-dasharray:2.0,2.0;" x1="587.5" x2="1064" y1="1194.7734" y2="1194.7734"/><text fill="#000000" font-family="sans-serif" font-size="13" lengthAdjust="spacing" textLength="224" x="599.5" y="1190.0313">Return data for consented accounts</text><line style="stroke:#181818;stroke-width:1.0;" x1="582.5" x2="624.5" y1="1224.084" y2="1224.084"/><line style="stroke:#181818;stroke-width:1.0;" x1="624.5" x2="624.5" y1="1224.084" y2="1237.084"/><line style="stroke:#181818;stroke-width:1.0;" x1="583.5" x2="624.5" y1="1237.084" y2="1237.084"/><polygon fill="#181818" points="593.5,1233.084,583.5,1237.084,593.5,1241.084,589.5,1237.084" style="stroke:#181818;stroke-width:1.0;"/><text fill="#000000" font-family="sans-serif" font-size="13" lengthAdjust="spacing" textLength="274" x="589.5" y="1219.3418">Apply correct permissions to response data</text><polygon fill="#181818" points="338.5,1262.3945,328.5,1266.3945,338.5,1270.3945,334.5,1266.3945" style="stroke:#181818;stroke-width:1.0;"/><line style="stroke:#181818;stroke-width:1.0;stroke-dasharray:2.0,2.0;" x1="332.5" x2="581.5" y1="1266.3945" y2="1266.3945"/><text fill="#000000" font-family="sans-serif" font-size="13" lengthAdjust="spacing" textLength="102" x="344.5" y="1261.6523">Return response</text><line style="stroke:#181818;stroke-width:1.0;" x1="327.5" x2="369.5" y1="1309.7051" y2="1309.7051"/><line style="stroke:#181818;stroke-width:1.0;" x1="369.5" x2="369.5" y1="1309.7051" y2="1322.7051"/><line style="stroke:#181818;stroke-width:1.0;" x1="328.5" x2="369.5" y1="1322.7051" y2="1322.7051"/><polygon fill="#181818" points="338.5,1318.7051,328.5,1322.7051,338.5,1326.7051,334.5,1322.7051" style="stroke:#181818;stroke-width:1.0;"/><text fill="#000000" font-family="sans-serif" font-size="13" lengthAdjust="spacing" textLength="193" x="334.5" y="1304.9629">Format response for standards</text><polygon fill="#181818" points="69.5,1348.0156,59.5,1352.0156,69.5,1356.0156,65.5,1352.0156" style="stroke:#181818;stroke-width:1.0;"/><line style="stroke:#181818;stroke-width:1.0;stroke-dasharray:2.0,2.0;" x1="63.5" x2="326.5" y1="1352.0156" y2="1352.0156"/><text fill="#000000" font-family="sans-serif" font-size="13" lengthAdjust="spacing" textLength="102" x="75.5" y="1347.2734">Return response</text><!--SRC=[vLLTRnit47pdhrWuB-s3rJGn-c7K1MGv3jIWY24P3Ge82AZZIY9oHrv9dXmL_l6TvTtfovKRvBLFWexSsU7CB9biAfbcRkQKgdL8jh2rTedERdJICpTX_BViqXdfI3SJfUR-CmshkhIB3RslsT6rTf-iMzAB7sw7FzsC3b66T-EPUwiJF-XDXi27Zs-7zsy-3Fyyt3doWNkicHjvvxX8FkIYqVKnR9DMFjY_TR8UrASSrjnk7Gz_L-mCWQPgoUu3qx06yoANHNhnyqLnyQCvXDvIc6vYuYgshATtqxkFuBx3Nbd3jF0-vNyHDO3H5LtxptVQ66dswgLIpYUcO9UhH7uX0hu7qxNb1tLrTQLkRPauoDx0iGOdZi0Cf8l2DovzLtEeR8oPhKwKLaoTcCf6geDULZXBGTPHfTs6ciXKQ46PDucmfIcJnHOkDmGc50jTifwNh4p3b3oLNXlIE9FX9BsSZLLci62T6f2Ys1GhaQ3MI-koS0Cr1jBADwKHHe4Nel2SoI8MN24iRAIYA7tCJOHsp6gA1e4B7umII8-ZWGpP0GzE-pIWUm2WXeFKrsY8fgv0dLF2EihdwCkcjTN6I_Nu-AY-7r2hRo_TgGu3zMf_gwRA5W7SuLCXUjQYcFGuYmbQBfho3CTTwRNrJHYeryTzEei6EImI0ALk9dJ-wtxuBsd2VpKS4mrRhsdie6EL2M4j0hhWcNkmQKLhNLeZ6pb6klUV6CEwXoNGoFqbZNHPqcyVtatfZJErjq25_BaQbB1oByaIa9H1zZ5-EJzlGIOCurs6EMvomF-F7ZPZvH0jES5rRQkeb2uJuax68qCIFSWb3Y3YO2K94wL2gu7afLC12w4x_ByCpzZ1vwhFk20SJ8Z4424DcpPHM5Sz1U0UKjaLYaQjB4hJqgvn6Exa6v1qb0dOTUpSnHUdR5MniUryjHDiI1ppcBwbbvXryP_h0YAPeqY8vaUPs67GnSlNzCsj3tDh3BjlbU8IyuIobLo9dP9RxdjQxWGK4tPtZ5mP72Hbs0IAKQwm_ZvvpkfXivInxbjqgInQ2ZlpulvzzMnp3CgfONoIR5p-bmGP7dGmFOCiqCpz1mDKRW56WIMhVRq4y6brNx6zxdTJYgJhKrNRxKzgKx2Ch7rDiKYoEOWthDvvB92PRixGGK-PtcSx7arzrgUhwv-XBcnVQD_sjVw_cVTr1kmVhRKPBoAUnVJKxjQDrkqlz0tN1oPl-_liOD_c5sVNHmZZZNC6TiKJDzHXlty0]--></g></svg>