<?xml version="1.0" encoding="us-ascii" standalone="no"?><svg xmlns="http://www.w3.org/2000/svg" xmlns:xlink="http://www.w3.org/1999/xlink" contentStyleType="text/css" height="1367px" preserveAspectRatio="none" style="width:1453px;height:1367px;background:#FFFFFF;" version="1.1" viewBox="0 0 1453 1367" width="1453px" zoomAndPan="magnify"><defs/><g><text fill="#000000" font-family="sans-serif" font-size="14" font-weight="bold" lengthAdjust="spacing" textLength="5" x="744.25" y="27.9951">&#160;</text><text fill="#000000" font-family="sans-serif" font-size="14" font-weight="bold" lengthAdjust="spacing" textLength="5" x="744.25" y="44.292">&#160;</text><text fill="#000000" font-family="sans-serif" font-size="14" font-weight="bold" lengthAdjust="spacing" textLength="5" x="744.25" y="60.5889">&#160;</text><rect fill="#FC877E" height="1279.0469" style="stroke:#181818;stroke-width:0.5;" width="351" x="291" y="75.8906"/><text fill="#000000" font-family="sans-serif" font-size="13" font-weight="bold" lengthAdjust="spacing" textLength="109" x="409.5" y="87.9575">Amplify Fusion</text><rect fill="#94C47D" height="1279.0469" style="stroke:#181818;stroke-width:0.5;" width="214" x="820" y="75.8906"/><text fill="#000000" font-family="sans-serif" font-size="13" font-weight="bold" lengthAdjust="spacing" textLength="203" x="823" y="87.9575">Identity and Access Control</text><rect fill="#D5A6BD" height="1279.0469" style="stroke:#181818;stroke-width:0.5;" width="206" x="1076" y="75.8906"/><text fill="#000000" font-family="sans-serif" font-size="13" font-weight="bold" lengthAdjust="spacing" textLength="195" x="1079" y="87.9575">Core Banking Applications</text><rect fill="none" height="636.4609" style="stroke:#000000;stroke-width:1.5;" width="1172" x="275" y="636.2109"/><rect fill="none" height="548.0625" style="stroke:#000000;stroke-width:1.5;" width="1152" x="285" y="717.6094"/><line style="stroke:#181818;stroke-width:0.5;stroke-dasharray:5.0,5.0;" x1="59" x2="59" y1="142.6172" y2="1360.9375"/><line style="stroke:#181818;stroke-width:0.5;stroke-dasharray:5.0,5.0;" x1="331" x2="331" y1="142.6172" y2="1360.9375"/><line style="stroke:#181818;stroke-width:0.5;stroke-dasharray:5.0,5.0;" x1="584" x2="584" y1="142.6172" y2="1360.9375"/><line style="stroke:#181818;stroke-width:0.5;stroke-dasharray:5.0,5.0;" x1="926.5" x2="926.5" y1="142.6172" y2="1360.9375"/><line style="stroke:#181818;stroke-width:0.5;stroke-dasharray:5.0,5.0;" x1="1178.5" x2="1178.5" y1="142.6172" y2="1360.9375"/><rect fill="#E2E2F0" height="46.5938" rx="2.5" ry="2.5" style="stroke:#181818;stroke-width:0.5;" width="79" x="20" y="95.0234"/><text fill="#000000" font-family="sans-serif" font-size="14" lengthAdjust="spacing" textLength="32" x="43.5" y="115.0186">Data</text><text fill="#000000" font-family="sans-serif" font-size="14" lengthAdjust="spacing" textLength="65" x="27" y="131.3154">Recipient</text><rect fill="#E2E2F0" height="46.5938" rx="2.5" ry="2.5" style="stroke:#181818;stroke-width:0.5;" width="73" x="295" y="95.0234"/><text fill="#000000" font-family="sans-serif" font-size="14" lengthAdjust="spacing" textLength="21" x="321" y="115.0186">API</text><text fill="#000000" font-family="sans-serif" font-size="14" lengthAdjust="spacing" textLength="59" x="302" y="131.3154">Gateway</text><rect fill="#E2E2F0" height="46.5938" rx="2.5" ry="2.5" style="stroke:#181818;stroke-width:0.5;" width="107" x="531" y="95.0234"/><text fill="#000000" font-family="sans-serif" font-size="14" lengthAdjust="spacing" textLength="93" x="538" y="115.0186">Core Banking</text><text fill="#000000" font-family="sans-serif" font-size="14" lengthAdjust="spacing" textLength="73" x="548" y="131.3154">Connector</text><rect fill="#E2E2F0" height="46.5938" rx="2.5" ry="2.5" style="stroke:#181818;stroke-width:0.5;" width="105" x="874.5" y="95.0234"/><text fill="#000000" font-family="sans-serif" font-size="14" lengthAdjust="spacing" textLength="50" x="902" y="115.0186">Identity</text><text fill="#000000" font-family="sans-serif" font-size="14" lengthAdjust="spacing" textLength="91" x="881.5" y="131.3154">Management</text><rect fill="#E2E2F0" height="46.5938" rx="2.5" ry="2.5" style="stroke:#181818;stroke-width:0.5;" width="73" x="1142.5" y="95.0234"/><text fill="#000000" font-family="sans-serif" font-size="14" lengthAdjust="spacing" textLength="56" x="1151" y="115.0186">Banking</text><text fill="#000000" font-family="sans-serif" font-size="14" lengthAdjust="spacing" textLength="59" x="1149.5" y="131.3154">Systems</text><path d="M64,157.6172 L64,330.6172 L522,330.6172 L522,167.6172 L512,157.6172 L64,157.6172 " fill="#FEFFDD" style="stroke:#181818;stroke-width:0.5;"/><path d="M512,157.6172 L512,167.6172 L522,167.6172 L512,157.6172 " fill="#FEFFDD" style="stroke:#181818;stroke-width:0.5;"/><text fill="#000000" font-family="sans-serif" font-size="13" lengthAdjust="spacing" textLength="57" x="70" y="174.6841">Overview</text><line style="stroke:#181818;stroke-width:1.0;" x1="65" x2="521" y1="177.75" y2="177.75"/><line style="stroke:#181818;stroke-width:1.0;" x1="65" x2="521" y1="179.75" y2="179.75"/><text fill="#000000" font-family="sans-serif" font-size="13" lengthAdjust="spacing" textLength="378" x="70" y="193.8169">Filtering responses for account/permissions at the Gateway</text><text fill="#000000" font-family="sans-serif" font-size="13" lengthAdjust="spacing" textLength="397" x="70" y="208.9497">is pragmatic in many use cases but is ultimately not scaleable</text><text fill="#000000" font-family="sans-serif" font-size="13" lengthAdjust="spacing" textLength="391" x="70" y="224.0825">due to load and determinism for features such as pagination.</text><text fill="#000000" font-family="sans-serif" font-size="13" lengthAdjust="spacing" textLength="436" x="70" y="239.2153">It should therefore be implemented as close to the system of record</text><text fill="#000000" font-family="sans-serif" font-size="13" lengthAdjust="spacing" textLength="437" x="70" y="254.3481">as possible i.e. Core Banking Applications. The order of preference in</text><text fill="#000000" font-family="sans-serif" font-size="13" lengthAdjust="spacing" textLength="133" x="70" y="269.481">terms of solutions is:</text><line style="stroke:#000000;stroke-width:0.5;" x1="70" x2="70" y1="274.5469" y2="274.5469"/><line style="stroke:#000000;stroke-width:0.5;" x1="70" x2="70" y1="274.5469" y2="274.5469"/><line style="stroke:#000000;stroke-width:0.5;" x1="70" x2="70" y1="274.5469" y2="274.5469"/><text fill="#000000" font-family="sans-serif" font-size="13" lengthAdjust="spacing" textLength="256" x="70" y="288.6138">1. Filter at the Core Banking Application.</text><text fill="#000000" font-family="sans-serif" font-size="13" lengthAdjust="spacing" textLength="364" x="70" y="303.7466">2. Filter at a microservice capable of "stateful" behaviour.</text><text fill="#000000" font-family="sans-serif" font-size="13" lengthAdjust="spacing" textLength="152" x="70" y="318.8794">3. Filter at the Gateway.</text><polygon fill="#181818" points="319.5,368.2109,329.5,372.2109,319.5,376.2109,323.5,372.2109" style="stroke:#181818;stroke-width:1.0;"/><line style="stroke:#181818;stroke-width:1.0;" x1="59.5" x2="325.5" y1="372.2109" y2="372.2109"/><text fill="#000000" font-family="sans-serif" font-size="13" lengthAdjust="spacing" textLength="248" x="66.5" y="352.0122">Request Account Information Resource</text><text fill="#000000" font-family="sans-serif" font-size="13" lengthAdjust="spacing" textLength="149" x="66.5" y="367.145">with valid Access Token</text><polygon fill="#181818" points="915,397.3438,925,401.3438,915,405.3438,919,401.3438" style="stroke:#181818;stroke-width:1.0;"/><line style="stroke:#181818;stroke-width:1.0;" x1="331.5" x2="921" y1="401.3438" y2="401.3438"/><text fill="#000000" font-family="sans-serif" font-size="13" lengthAdjust="spacing" textLength="302" x="338.5" y="396.2778">Call JWKS Endpoint to validate JWT access token</text><polygon fill="#181818" points="342.5,426.4766,332.5,430.4766,342.5,434.4766,338.5,430.4766" style="stroke:#181818;stroke-width:1.0;"/><line style="stroke:#181818;stroke-width:1.0;stroke-dasharray:2.0,2.0;" x1="336.5" x2="926" y1="430.4766" y2="430.4766"/><text fill="#000000" font-family="sans-serif" font-size="13" lengthAdjust="spacing" textLength="77" x="348.5" y="425.4106">Return JWKS</text><line style="stroke:#181818;stroke-width:1.0;" x1="331.5" x2="373.5" y1="459.6094" y2="459.6094"/><line style="stroke:#181818;stroke-width:1.0;" x1="373.5" x2="373.5" y1="459.6094" y2="472.6094"/><line style="stroke:#181818;stroke-width:1.0;" x1="332.5" x2="373.5" y1="472.6094" y2="472.6094"/><polygon fill="#181818" points="342.5,468.6094,332.5,472.6094,342.5,476.6094,338.5,472.6094" style="stroke:#181818;stroke-width:1.0;"/><text fill="#000000" font-family="sans-serif" font-size="13" lengthAdjust="spacing" textLength="190" x="338.5" y="454.5435">Validate token and get claims</text><path d="M64,509.7422 L64,579.7422 L413,579.7422 L413,519.7422 L403,509.7422 L64,509.7422 " fill="#FEFFDD" style="stroke:#181818;stroke-width:0.5;"/><path d="M403,509.7422 L403,519.7422 L413,519.7422 L403,509.7422 " fill="#FEFFDD" style="stroke:#181818;stroke-width:0.5;"/><text fill="#000000" font-family="sans-serif" font-size="13" lengthAdjust="spacing" textLength="314" x="70" y="526.8091">In some cases the permissions are binary i.e. the</text><text fill="#000000" font-family="sans-serif" font-size="13" lengthAdjust="spacing" textLength="304" x="70" y="541.9419">DR does or does not have permission to access</text><text fill="#000000" font-family="sans-serif" font-size="13" lengthAdjust="spacing" textLength="311" x="70" y="557.0747">a given endpoint. In such cases the Gateway can</text><text fill="#000000" font-family="sans-serif" font-size="13" lengthAdjust="spacing" textLength="328" x="70" y="572.2075">immediately respond without going to the backend.</text><polygon fill="#181818" points="70.5,602.4063,60.5,606.4063,70.5,610.4063,66.5,606.4063" style="stroke:#181818;stroke-width:1.0;"/><line style="stroke:#181818;stroke-width:1.0;stroke-dasharray:2.0,2.0;" x1="64.5" x2="330.5" y1="606.4063" y2="606.4063"/><text fill="#000000" font-family="sans-serif" font-size="13" lengthAdjust="spacing" textLength="189" x="76.5" y="601.3403">Respond with 403 (Forbidden)</text><path d="M275,636.2109 L339,636.2109 L339,643.3438 L329,653.3438 L275,653.3438 L275,636.2109 " fill="#EEEEEE" style="stroke:#000000;stroke-width:1.5;"/><rect fill="none" height="636.4609" style="stroke:#000000;stroke-width:1.5;" width="1172" x="275" y="636.2109"/><text fill="#000000" font-family="sans-serif" font-size="13" font-weight="bold" lengthAdjust="spacing" textLength="19" x="290" y="649.2778">alt</text><text fill="#000000" font-family="sans-serif" font-size="11" font-weight="bold" lengthAdjust="spacing" textLength="261" x="354" y="648.4214">[Filtering is performed outside Gateway]</text><line style="stroke:#181818;stroke-width:1.0;" x1="331.5" x2="373.5" y1="689.6094" y2="689.6094"/><line style="stroke:#181818;stroke-width:1.0;" x1="373.5" x2="373.5" y1="689.6094" y2="702.6094"/><line style="stroke:#181818;stroke-width:1.0;" x1="332.5" x2="373.5" y1="702.6094" y2="702.6094"/><polygon fill="#181818" points="342.5,698.6094,332.5,702.6094,342.5,706.6094,338.5,702.6094" style="stroke:#181818;stroke-width:1.0;"/><text fill="#000000" font-family="sans-serif" font-size="13" lengthAdjust="spacing" textLength="112" x="338.5" y="669.4106">Augment request</text><text fill="#000000" font-family="sans-serif" font-size="13" lengthAdjust="spacing" textLength="239" x="338.5" y="684.5435">with consented accounts/permissions</text><path d="M285,717.6094 L349,717.6094 L349,724.7422 L339,734.7422 L285,734.7422 L285,717.6094 " fill="#EEEEEE" style="stroke:#000000;stroke-width:1.5;"/><rect fill="none" height="548.0625" style="stroke:#000000;stroke-width:1.5;" width="1152" x="285" y="717.6094"/><text fill="#000000" font-family="sans-serif" font-size="13" font-weight="bold" lengthAdjust="spacing" textLength="19" x="300" y="730.6763">alt</text><text fill="#000000" font-family="sans-serif" font-size="11" font-weight="bold" lengthAdjust="spacing" textLength="332" x="364" y="729.8198">[Filtering is performed at Core Banking Application]</text><polygon fill="#181818" points="572.5,767.0078,582.5,771.0078,572.5,775.0078,576.5,771.0078" style="stroke:#181818;stroke-width:1.0;"/><line style="stroke:#181818;stroke-width:1.0;" x1="331.5" x2="578.5" y1="771.0078" y2="771.0078"/><text fill="#000000" font-family="sans-serif" font-size="13" lengthAdjust="spacing" textLength="132" x="338.5" y="750.8091">Forward request with</text><text fill="#000000" font-family="sans-serif" font-size="13" lengthAdjust="spacing" textLength="210" x="338.5" y="765.9419">consented accounts/permissions</text><line style="stroke:#181818;stroke-width:1.0;" x1="584.5" x2="626.5" y1="800.1406" y2="800.1406"/><line style="stroke:#181818;stroke-width:1.0;" x1="626.5" x2="626.5" y1="800.1406" y2="813.1406"/><line style="stroke:#181818;stroke-width:1.0;" x1="585.5" x2="626.5" y1="813.1406" y2="813.1406"/><polygon fill="#181818" points="595.5,809.1406,585.5,813.1406,595.5,817.1406,591.5,813.1406" style="stroke:#181818;stroke-width:1.0;"/><text fill="#000000" font-family="sans-serif" font-size="13" lengthAdjust="spacing" textLength="250" x="591.5" y="795.0747">Create request for consented accounts</text><polygon fill="#181818" points="1167,838.2734,1177,842.2734,1167,846.2734,1171,842.2734" style="stroke:#181818;stroke-width:1.0;"/><line style="stroke:#181818;stroke-width:1.0;" x1="584.5" x2="1173" y1="842.2734" y2="842.2734"/><text fill="#000000" font-family="sans-serif" font-size="13" lengthAdjust="spacing" textLength="239" x="591.5" y="837.2075">Request data for consented accounts</text><line style="stroke:#181818;stroke-width:1.0;" x1="1179" x2="1221" y1="871.4063" y2="871.4063"/><line style="stroke:#181818;stroke-width:1.0;" x1="1221" x2="1221" y1="871.4063" y2="884.4063"/><line style="stroke:#181818;stroke-width:1.0;" x1="1180" x2="1221" y1="884.4063" y2="884.4063"/><polygon fill="#181818" points="1190,880.4063,1180,884.4063,1190,888.4063,1186,884.4063" style="stroke:#181818;stroke-width:1.0;"/><text fill="#000000" font-family="sans-serif" font-size="13" lengthAdjust="spacing" textLength="239" x="1186" y="866.3403">Retrieve data for consented accounts</text><line style="stroke:#181818;stroke-width:1.0;" x1="1179" x2="1221" y1="913.5391" y2="913.5391"/><line style="stroke:#181818;stroke-width:1.0;" x1="1221" x2="1221" y1="913.5391" y2="926.5391"/><line style="stroke:#181818;stroke-width:1.0;" x1="1180" x2="1221" y1="926.5391" y2="926.5391"/><polygon fill="#181818" points="1190,922.5391,1180,926.5391,1190,930.5391,1186,926.5391" style="stroke:#181818;stroke-width:1.0;"/><text fill="#000000" font-family="sans-serif" font-size="13" lengthAdjust="spacing" textLength="235" x="1186" y="908.4731">Apply permissions to requested data</text><polygon fill="#181818" points="595.5,951.6719,585.5,955.6719,595.5,959.6719,591.5,955.6719" style="stroke:#181818;stroke-width:1.0;"/><line style="stroke:#181818;stroke-width:1.0;stroke-dasharray:2.0,2.0;" x1="589.5" x2="1178" y1="955.6719" y2="955.6719"/><text fill="#000000" font-family="sans-serif" font-size="13" lengthAdjust="spacing" textLength="229" x="601.5" y="950.606">Return data for consented accounts</text><polygon fill="#181818" points="342.5,980.8047,332.5,984.8047,342.5,988.8047,338.5,984.8047" style="stroke:#181818;stroke-width:1.0;"/><line style="stroke:#181818;stroke-width:1.0;stroke-dasharray:2.0,2.0;" x1="336.5" x2="583.5" y1="984.8047" y2="984.8047"/><text fill="#000000" font-family="sans-serif" font-size="13" lengthAdjust="spacing" textLength="105" x="348.5" y="979.7388">Return response</text><line style="stroke:#000000;stroke-width:1.0;stroke-dasharray:2.0,2.0;" x1="285" x2="1437" y1="993.8047" y2="993.8047"/><text fill="#000000" font-family="sans-serif" font-size="11" font-weight="bold" lengthAdjust="spacing" textLength="326" x="290" y="1004.0151">[Filtering is performed at Core Banking Connector]</text><polygon fill="#181818" points="572.5,1039.875,582.5,1043.875,572.5,1047.875,576.5,1043.875" style="stroke:#181818;stroke-width:1.0;"/><line style="stroke:#181818;stroke-width:1.0;" x1="331.5" x2="578.5" y1="1043.875" y2="1043.875"/><text fill="#000000" font-family="sans-serif" font-size="13" lengthAdjust="spacing" textLength="132" x="338.5" y="1023.6763">Forward request with</text><text fill="#000000" font-family="sans-serif" font-size="13" lengthAdjust="spacing" textLength="210" x="338.5" y="1038.8091">consented accounts/permissions</text><line style="stroke:#181818;stroke-width:1.0;" x1="584.5" x2="626.5" y1="1073.0078" y2="1073.0078"/><line style="stroke:#181818;stroke-width:1.0;" x1="626.5" x2="626.5" y1="1073.0078" y2="1086.0078"/><line style="stroke:#181818;stroke-width:1.0;" x1="585.5" x2="626.5" y1="1086.0078" y2="1086.0078"/><polygon fill="#181818" points="595.5,1082.0078,585.5,1086.0078,595.5,1090.0078,591.5,1086.0078" style="stroke:#181818;stroke-width:1.0;"/><text fill="#000000" font-family="sans-serif" font-size="13" lengthAdjust="spacing" textLength="250" x="591.5" y="1067.9419">Create request for consented accounts</text><polygon fill="#181818" points="1167,1111.1406,1177,1115.1406,1167,1119.1406,1171,1115.1406" style="stroke:#181818;stroke-width:1.0;"/><line style="stroke:#181818;stroke-width:1.0;" x1="584.5" x2="1173" y1="1115.1406" y2="1115.1406"/><text fill="#000000" font-family="sans-serif" font-size="13" lengthAdjust="spacing" textLength="239" x="591.5" y="1110.0747">Request data for consented accounts</text><line style="stroke:#181818;stroke-width:1.0;" x1="1179" x2="1221" y1="1144.2734" y2="1144.2734"/><line style="stroke:#181818;stroke-width:1.0;" x1="1221" x2="1221" y1="1144.2734" y2="1157.2734"/><line style="stroke:#181818;stroke-width:1.0;" x1="1180" x2="1221" y1="1157.2734" y2="1157.2734"/><polygon fill="#181818" points="1190,1153.2734,1180,1157.2734,1190,1161.2734,1186,1157.2734" style="stroke:#181818;stroke-width:1.0;"/><text fill="#000000" font-family="sans-serif" font-size="13" lengthAdjust="spacing" textLength="239" x="1186" y="1139.2075">Retrieve data for consented accounts</text><polygon fill="#181818" points="595.5,1182.4063,585.5,1186.4063,595.5,1190.4063,591.5,1186.4063" style="stroke:#181818;stroke-width:1.0;"/><line style="stroke:#181818;stroke-width:1.0;stroke-dasharray:2.0,2.0;" x1="589.5" x2="1178" y1="1186.4063" y2="1186.4063"/><text fill="#000000" font-family="sans-serif" font-size="13" lengthAdjust="spacing" textLength="229" x="601.5" y="1181.3403">Return data for consented accounts</text><line style="stroke:#181818;stroke-width:1.0;" x1="584.5" x2="626.5" y1="1215.5391" y2="1215.5391"/><line style="stroke:#181818;stroke-width:1.0;" x1="626.5" x2="626.5" y1="1215.5391" y2="1228.5391"/><line style="stroke:#181818;stroke-width:1.0;" x1="585.5" x2="626.5" y1="1228.5391" y2="1228.5391"/><polygon fill="#181818" points="595.5,1224.5391,585.5,1228.5391,595.5,1232.5391,591.5,1228.5391" style="stroke:#181818;stroke-width:1.0;"/><text fill="#000000" font-family="sans-serif" font-size="13" lengthAdjust="spacing" textLength="278" x="591.5" y="1210.4731">Apply correct permissions to response data</text><polygon fill="#181818" points="342.5,1253.6719,332.5,1257.6719,342.5,1261.6719,338.5,1257.6719" style="stroke:#181818;stroke-width:1.0;"/><line style="stroke:#181818;stroke-width:1.0;stroke-dasharray:2.0,2.0;" x1="336.5" x2="583.5" y1="1257.6719" y2="1257.6719"/><text fill="#000000" font-family="sans-serif" font-size="13" lengthAdjust="spacing" textLength="105" x="348.5" y="1252.606">Return response</text><line style="stroke:#181818;stroke-width:1.0;" x1="331.5" x2="373.5" y1="1300.8047" y2="1300.8047"/><line style="stroke:#181818;stroke-width:1.0;" x1="373.5" x2="373.5" y1="1300.8047" y2="1313.8047"/><line style="stroke:#181818;stroke-width:1.0;" x1="332.5" x2="373.5" y1="1313.8047" y2="1313.8047"/><polygon fill="#181818" points="342.5,1309.8047,332.5,1313.8047,342.5,1317.8047,338.5,1313.8047" style="stroke:#181818;stroke-width:1.0;"/><text fill="#000000" font-family="sans-serif" font-size="13" lengthAdjust="spacing" textLength="198" x="338.5" y="1295.7388">Format response for standards</text><polygon fill="#181818" points="70.5,1338.9375,60.5,1342.9375,70.5,1346.9375,66.5,1342.9375" style="stroke:#181818;stroke-width:1.0;"/><line style="stroke:#181818;stroke-width:1.0;stroke-dasharray:2.0,2.0;" x1="64.5" x2="330.5" y1="1342.9375" y2="1342.9375"/><text fill="#000000" font-family="sans-serif" font-size="13" lengthAdjust="spacing" textLength="105" x="76.5" y="1337.8716">Return response</text><!--SRC=[vLLDRnit4BtpLmpiItlmDatSkZNg0h8S1seHr92D1WK411GvaeXmoIt9bIF0Fxupt2-jNBb1hZq9MdBUFBxtXamcMOI5MpWXAXcIKQQIBi79ZKnouUP8_mswT08omirSYAN_39EoicQrWziw6k_WTAL-khZ0SVtaRhPmxsJ2HxdBnVJXuxl9mziFax_6EwS-85nBzycuzS9DlNEeaW-vQ7ez5UWqKDUczKmJ6PDs8EdhH2cCjCcx5Bo5qv_FrVc57gDt1GltNZgvnh8xp6poVWozpmCc5HrHoKJdYt2gVv0_BW-0UyRtkvYmZCqXx-_kxpxIKGVeZT48A-zJ_XUfXc1a2TV-yvtKcfkzVYM4ymaXcFKcWL-nqdziCMmDFeghgojnQsp2m7i3neeuOIJC058fNxlqNOMXD35cjZ91sY2qsWiJeGfoNT9P51W7fNGxg2E2aeooh1FGbjecGrlGxe2OG5JIebnQ5Bf6I1wibpfhhZ5nBsTYcHciKAQQI46irOObgEJQk2nS8MQ4jF6rrSmeu8eLNY8Ooays0ZLNAEjZRiAqOrQJDGYeVD228JqTZSY0AR0uxbC13mH0DHYulgA6rDGfgdE2MKV-7Bsj6rjDl1HFJq_Y-m8QVJlfZdKenElzhH9Aem9n9vyKwrcnOjpZ92RISbNR4phkHcwDhqCXtXpsQIqgSbWu04BSpE7ir_rPkOGv_brZJ9nszXfcZdGiCo5QYmIjSE4UJTh0LbhJZyM3_uGqrNjO34snluIfj1P- -_3xFRnrklA6K4d-N4sKQEM1ayKWAOFiO_noTjQ0p96CTndciCc8_vyTRCRA8LfZ8jUbAQCGqYQAEsXF6UBeaLpi04MSM772MAdGQC1vQLMWXT0U_b-6P-R8vxBBE2EC9eHZI24DkoPHj2uw2eGxfZ8KiaQDB4B2scpfCDZALm1tv0aOEhRkqXSdJ5cYDiryDHEiWHtpD7rhpp5hux-KYaJI1v5WpGyoCM30-QityCsj3qkZwRBxLWYqD4zKjf6nLxBdlgVb822RCDmnV6LWu9JH9g8O-GhhxfENh9xKQnxhhaMRIjLG6CoB-_VLYyrfK8uDuxDaqrjn2IJ3emowOv05MhZ_O42LFS0q86Urg-S0Fg_kAlhhVfXIIheyLjLlVrQRWa7AsjSKioIxKRp9wi5ZXinqSuP6FNbwN-nuCFLPdxQkUuRQi7sXVVtZ_dypx-iCs3zQOpEzYFGifkTsDsuqRd-XRtHzqEJrloyEzcr-SOO-J9ZUEAV9hdZaXXht-mS0]--></g></svg>