<?xml version="1.0" encoding="us-ascii" standalone="no"?><svg xmlns="http://www.w3.org/2000/svg" xmlns:xlink="http://www.w3.org/1999/xlink" contentStyleType="text/css" height="2623px" preserveAspectRatio="none" style="width:2152px;height:2623px;background:#FFFFFF;" version="1.1" viewBox="0 0 2152 2623" width="2152px" zoomAndPan="magnify"><defs/><g><text fill="#000000" font-family="sans-serif" font-size="14" font-weight="bold" lengthAdjust="spacing" textLength="5" x="1069.5" y="28.5352">&#160;</text><text fill="#000000" font-family="sans-serif" font-size="14" font-weight="bold" lengthAdjust="spacing" textLength="5" x="1069.5" y="45.0234">&#160;</text><text fill="#000000" font-family="sans-serif" font-size="14" font-weight="bold" lengthAdjust="spacing" textLength="5" x="1069.5" y="61.5117">&#160;</text><text fill="#000000" font-family="sans-serif" font-size="14" font-weight="bold" lengthAdjust="spacing" textLength="5" x="1069.5" y="78">&#160;</text><rect fill="#6FA8DC" height="2517.9238" style="stroke:#181818;stroke-width:0.5;" width="798.5" x="874" y="92.9531"/><text fill="#000000" font-family="sans-serif" font-size="13" font-weight="bold" lengthAdjust="spacing" textLength="153" x="1194.75" y="105.5215">Amplify Open Banking</text><rect fill="#94C47D" height="2517.9238" style="stroke:#181818;stroke-width:0.5;" width="281" x="1843" y="92.9531"/><text fill="#000000" font-family="sans-serif" font-size="13" font-weight="bold" lengthAdjust="spacing" textLength="202" x="1880.5" y="105.5215">Financial Institution's systems</text><rect fill="none" height="315.127" style="stroke:#000000;stroke-width:1.5;" width="1942" x="188" y="2284.75"/><line style="stroke:#181818;stroke-width:0.5;stroke-dasharray:5.0,5.0;" x1="38" x2="38" y1="168.4414" y2="2616.877"/><line style="stroke:#181818;stroke-width:0.5;stroke-dasharray:5.0,5.0;" x1="236" x2="236" y1="168.4414" y2="2616.877"/><line style="stroke:#181818;stroke-width:0.5;stroke-dasharray:5.0,5.0;" x1="913" x2="913" y1="168.4414" y2="2616.877"/><line style="stroke:#181818;stroke-width:0.5;stroke-dasharray:5.0,5.0;" x1="1099" x2="1099" y1="168.4414" y2="2616.877"/><line style="stroke:#181818;stroke-width:0.5;stroke-dasharray:5.0,5.0;" x1="1216" x2="1216" y1="168.4414" y2="2616.877"/><line style="stroke:#181818;stroke-width:0.5;stroke-dasharray:5.0,5.0;" x1="1590.5" x2="1590.5" y1="168.4414" y2="2616.877"/><line style="stroke:#181818;stroke-width:0.5;stroke-dasharray:5.0,5.0;" x1="1903" x2="1903" y1="168.4414" y2="2616.877"/><line style="stroke:#181818;stroke-width:0.5;stroke-dasharray:5.0,5.0;" x1="2005" x2="2005" y1="168.4414" y2="2616.877"/><line style="stroke:#181818;stroke-width:0.5;stroke-dasharray:5.0,5.0;" x1="2085" x2="2085" y1="168.4414" y2="2616.877"/><text fill="#000000" font-family="sans-serif" font-size="14" lengthAdjust="spacing" textLength="61" x="5" y="165.4883">End User</text><ellipse cx="38.5" cy="100.4531" fill="#E2E2F0" rx="8" ry="8" style="stroke:#181818;stroke-width:0.5;"/><path d="M38.5,108.4531 L38.5,135.4531 M25.5,116.4531 L51.5,116.4531 M38.5,135.4531 L25.5,150.4531 M38.5,135.4531 L51.5,150.4531 " fill="none" style="stroke:#181818;stroke-width:0.5;"/><rect fill="#E2E2F0" height="46.9766" rx="2.5" ry="2.5" style="stroke:#181818;stroke-width:0.5;" width="77" x="198" y="120.4648"/><text fill="#000000" font-family="sans-serif" font-size="14" lengthAdjust="spacing" textLength="31" x="221" y="141">Data</text><text fill="#000000" font-family="sans-serif" font-size="14" lengthAdjust="spacing" textLength="63" x="205" y="157.4883">Recipient</text><rect fill="#E2E2F0" height="46.9766" rx="2.5" ry="2.5" style="stroke:#181818;stroke-width:0.5;" width="71" x="878" y="120.4648"/><text fill="#000000" font-family="sans-serif" font-size="14" lengthAdjust="spacing" textLength="22" x="902.5" y="141">API</text><text fill="#000000" font-family="sans-serif" font-size="14" lengthAdjust="spacing" textLength="57" x="885" y="157.4883">Gateway</text><rect fill="#E2E2F0" height="46.9766" rx="2.5" ry="2.5" style="stroke:#181818;stroke-width:0.5;" width="103" x="1048" y="120.4648"/><text fill="#000000" font-family="sans-serif" font-size="14" lengthAdjust="spacing" textLength="57" x="1071" y="141">Consent</text><text fill="#000000" font-family="sans-serif" font-size="14" lengthAdjust="spacing" textLength="89" x="1055" y="157.4883">Management</text><rect fill="#E2E2F0" height="46.9766" rx="2.5" ry="2.5" style="stroke:#181818;stroke-width:0.5;" width="110" x="1161" y="120.4648"/><text fill="#000000" font-family="sans-serif" font-size="14" lengthAdjust="spacing" textLength="92" x="1168" y="141">Core Banking</text><text fill="#000000" font-family="sans-serif" font-size="14" lengthAdjust="spacing" textLength="72" x="1180" y="157.4883">Connector</text><rect fill="#E2E2F0" height="30.4883" rx="2.5" ry="2.5" style="stroke:#181818;stroke-width:0.5;" width="156" x="1512.5" y="136.9531"/><text fill="#000000" font-family="sans-serif" font-size="14" lengthAdjust="spacing" textLength="142" x="1519.5" y="157.4883">Authorization Server</text><rect fill="#E2E2F0" height="46.9766" rx="2.5" ry="2.5" style="stroke:#181818;stroke-width:0.5;" width="113" x="1847" y="120.4648"/><text fill="#000000" font-family="sans-serif" font-size="14" lengthAdjust="spacing" textLength="99" x="1854" y="141">Consent Grant</text><text fill="#000000" font-family="sans-serif" font-size="14" lengthAdjust="spacing" textLength="28" x="1889.5" y="157.4883">App</text><rect fill="#E2E2F0" height="46.9766" rx="2.5" ry="2.5" style="stroke:#181818;stroke-width:0.5;" width="71" x="1970" y="120.4648"/><text fill="#000000" font-family="sans-serif" font-size="14" lengthAdjust="spacing" textLength="51" x="1980" y="141">Identity</text><text fill="#000000" font-family="sans-serif" font-size="14" lengthAdjust="spacing" textLength="57" x="1977" y="157.4883">Provider</text><rect fill="#E2E2F0" height="46.9766" rx="2.5" ry="2.5" style="stroke:#181818;stroke-width:0.5;" width="69" x="2051" y="120.4648"/><text fill="#000000" font-family="sans-serif" font-size="14" lengthAdjust="spacing" textLength="55" x="2058" y="141">Banking</text><text fill="#000000" font-family="sans-serif" font-size="14" lengthAdjust="spacing" textLength="55" x="2058" y="157.4883">Systems</text><path d="M43,183.4414 L43,262.4414 L662,262.4414 L662,193.4414 L652,183.4414 L43,183.4414 " fill="#FEFFDD" style="stroke:#181818;stroke-width:0.5;"/><path d="M652,183.4414 L652,193.4414 L662,193.4414 L652,183.4414 " fill="#FEFFDD" style="stroke:#181818;stroke-width:0.5;"/><text fill="#000000" font-family="sans-serif" font-size="13" lengthAdjust="spacing" textLength="57" x="49" y="201.0098">Overview</text><line style="stroke:#181818;stroke-width:1.0;" x1="44" x2="661" y1="203.752" y2="203.752"/><line style="stroke:#181818;stroke-width:1.0;" x1="44" x2="661" y1="205.752" y2="205.752"/><text fill="#000000" font-family="sans-serif" font-size="13" lengthAdjust="spacing" textLength="598" x="49" y="220.3203">This diagram sh ows the end-to-end web journey for obtaining Consent and starting to collect</text><text fill="#000000" font-family="sans-serif" font-size="13" lengthAdjust="spacing" textLength="598" x="49" y="235.6309">Account Information data. The goal is to place the components from the Architecture Overview</text><text fill="#000000" font-family="sans-serif" font-size="13" lengthAdjust="spacing" textLength="68" x="49" y="250.9414">in context.</text><rect fill="#EEEEEE" height="3" style="stroke:#EEEEEE;stroke-width:1.0;" width="2145" x="0" y="288.3389"/><line style="stroke:#000000;stroke-width:1.0;" x1="0" x2="2145" y1="288.3389" y2="288.3389"/><line style="stroke:#000000;stroke-width:1.0;" x1="0" x2="2145" y1="291.3389" y2="291.3389"/><rect fill="#EEEEEE" height="23.3105" style="stroke:#000000;stroke-width:2.0;" width="265" x="940" y="277.6836"/><text fill="#000000" font-family="sans-serif" font-size="13" font-weight="bold" lengthAdjust="spacing" textLength="247" x="946" y="294.252">Part 1: DR Obtains End User Consent</text><path d="M43,315.9941 L43,390.9941 L671,390.9941 L671,325.9941 L661,315.9941 L43,315.9941 " fill="#FEFFDD" style="stroke:#181818;stroke-width:0.5;"/><path d="M661,315.9941 L661,325.9941 L671,325.9941 L661,315.9941 " fill="#FEFFDD" style="stroke:#181818;stroke-width:0.5;"/><text fill="#000000" font-family="sans-serif" font-size="13" lengthAdjust="spacing" textLength="590" x="49" y="333.5625">Obtaining Consent from the End User is usually outside the scope of technical standards. The</text><text fill="#000000" font-family="sans-serif" font-size="13" lengthAdjust="spacing" textLength="607" x="49" y="348.873">Customer Experience Guidelines in FDX informs how Consent should be displayed and obtained.</text><line style="stroke:#000000;stroke-width:0.5;" x1="49" x2="49" y1="353.6152" y2="353.6152"/><line style="stroke:#000000;stroke-width:0.5;" x1="49" x2="49" y1="353.6152" y2="353.6152"/><line style="stroke:#000000;stroke-width:0.5;" x1="49" x2="49" y1="353.6152" y2="353.6152"/><text fill="#000000" font-family="sans-serif" font-size="13" lengthAdjust="spacing" textLength="537" x="49" y="368.1836">The specifics of this process are therefore not shown here. The Data Recipient (DR) is</text><text fill="#000000" font-family="sans-serif" font-size="13" lengthAdjust="spacing" textLength="421" x="49" y="383.4941">assumed to have implemented this within the guidelines specified.</text><polygon fill="#181818" points="224.5,413.5469,234.5,417.5469,224.5,421.5469,228.5,417.5469" style="stroke:#181818;stroke-width:1.0;"/><line style="stroke:#181818;stroke-width:1.0;" x1="38.5" x2="230.5" y1="417.5469" y2="417.5469"/><text fill="#000000" font-family="sans-serif" font-size="13" lengthAdjust="spacing" textLength="169" x="45.5" y="412.8047">Indicate wish to share data</text><polygon fill="#181818" points="49.5,473.4785,39.5,477.4785,49.5,481.4785,45.5,477.4785" style="stroke:#181818;stroke-width:1.0;"/><line style="stroke:#181818;stroke-width:1.0;stroke-dasharray:2.0,2.0;" x1="43.5" x2="235.5" y1="477.4785" y2="477.4785"/><text fill="#000000" font-family="sans-serif" font-size="13" lengthAdjust="spacing" textLength="98" x="55.5" y="442.1152">Display "Intent"</text><text fill="#000000" font-family="sans-serif" font-size="13" lengthAdjust="spacing" textLength="147" x="55.5" y="457.4258">i.e. data to be accessed</text><text fill="#000000" font-family="sans-serif" font-size="13" lengthAdjust="spacing" textLength="145" x="55.5" y="472.7363">or payment to be made</text><polygon fill="#181818" points="224.5,502.7891,234.5,506.7891,224.5,510.7891,228.5,506.7891" style="stroke:#181818;stroke-width:1.0;"/><line style="stroke:#181818;stroke-width:1.0;" x1="38.5" x2="230.5" y1="506.7891" y2="506.7891"/><text fill="#000000" font-family="sans-serif" font-size="13" lengthAdjust="spacing" textLength="92" x="45.5" y="502.0469">Confirm intent</text><polygon fill="#181818" points="49.5,532.0996,39.5,536.0996,49.5,540.0996,45.5,536.0996" style="stroke:#181818;stroke-width:1.0;"/><line style="stroke:#181818;stroke-width:1.0;stroke-dasharray:2.0,2.0;" x1="43.5" x2="235.5" y1="536.0996" y2="536.0996"/><text fill="#000000" font-family="sans-serif" font-size="13" lengthAdjust="spacing" textLength="174" x="55.5" y="531.3574">Show bank selection screen</text><polygon fill="#181818" points="224.5,561.4102,234.5,565.4102,224.5,569.4102,228.5,565.4102" style="stroke:#181818;stroke-width:1.0;"/><line style="stroke:#181818;stroke-width:1.0;" x1="38.5" x2="230.5" y1="565.4102" y2="565.4102"/><text fill="#000000" font-family="sans-serif" font-size="13" lengthAdjust="spacing" textLength="147" x="45.5" y="560.668">Confirm bank selection</text><rect fill="#EEEEEE" height="3" style="stroke:#EEEEEE;stroke-width:1.0;" width="2145" x="0" y="594.0654"/><line style="stroke:#000000;stroke-width:1.0;" x1="0" x2="2145" y1="594.0654" y2="594.0654"/><line style="stroke:#000000;stroke-width:1.0;" x1="0" x2="2145" y1="597.0654" y2="597.0654"/><rect fill="#EEEEEE" height="23.3105" style="stroke:#000000;stroke-width:2.0;" width="278" x="933.5" y="583.4102"/><text fill="#000000" font-family="sans-serif" font-size="13" font-weight="bold" lengthAdjust="spacing" textLength="260" x="939.5" y="599.9785">Part 2: DR Creates and Lodges "Intent"</text><path d="M241,621.7207 L241,676.7207 L729,676.7207 L729,631.7207 L719,621.7207 L241,621.7207 " fill="#FEFFDD" style="stroke:#181818;stroke-width:0.5;"/><path d="M719,621.7207 L719,631.7207 L729,631.7207 L719,621.7207 " fill="#FEFFDD" style="stroke:#181818;stroke-width:0.5;"/><text fill="#000000" font-family="sans-serif" font-size="13" lengthAdjust="spacing" textLength="417" x="247" y="639.2891">With the consent of the End User obtained the DR can now call the</text><text fill="#000000" font-family="sans-serif" font-size="13" lengthAdjust="spacing" textLength="394" x="247" y="654.5996">Authorization Server API at the correct bank. Note at this point</text><text fill="#000000" font-family="sans-serif" font-size="13" lengthAdjust="spacing" textLength="467" x="247" y="669.9102">Consent is usual termed "Intent" as it has yet to be confirmed at the bank.</text><line style="stroke:#181818;stroke-width:1.0;" x1="236.5" x2="278.5" y1="703.9629" y2="703.9629"/><line style="stroke:#181818;stroke-width:1.0;" x1="278.5" x2="278.5" y1="703.9629" y2="716.9629"/><line style="stroke:#181818;stroke-width:1.0;" x1="237.5" x2="278.5" y1="716.9629" y2="716.9629"/><polygon fill="#181818" points="247.5,712.9629,237.5,716.9629,247.5,720.9629,243.5,716.9629" style="stroke:#181818;stroke-width:1.0;"/><text fill="#000000" font-family="sans-serif" font-size="13" lengthAdjust="spacing" textLength="134" x="243.5" y="699.2207">Create Intent payload</text><path d="M241,729.9629 L241,1083.9629 L670,1083.9629 L670,739.9629 L660,729.9629 L241,729.9629 " fill="#FEFFDD" style="stroke:#181818;stroke-width:0.5;"/><path d="M660,729.9629 L660,739.9629 L670,739.9629 L660,729.9629 " fill="#FEFFDD" style="stroke:#181818;stroke-width:0.5;"/><text fill="#000000" font-family="sans-serif" font-size="13" lengthAdjust="spacing" textLength="208" x="247" y="747.5313">Send Push Authorization Request</text><line style="stroke:#000000;stroke-width:0.5;" x1="247" x2="247" y1="752.2734" y2="752.2734"/><line style="stroke:#000000;stroke-width:0.5;" x1="247" x2="247" y1="752.2734" y2="752.2734"/><line style="stroke:#000000;stroke-width:0.5;" x1="247" x2="247" y1="752.2734" y2="752.2734"/><text fill="#000000" font-family="sans-serif" font-size="13" lengthAdjust="spacing" textLength="408" x="247" y="766.8418">The par request MUST contain an authorization details parameter</text><line style="stroke:#000000;stroke-width:0.5;" x1="247" x2="247" y1="771.584" y2="771.584"/><line style="stroke:#000000;stroke-width:0.5;" x1="247" x2="247" y1="771.584" y2="771.584"/><line style="stroke:#000000;stroke-width:0.5;" x1="247" x2="247" y1="771.584" y2="771.584"/><text fill="#000000" font-family="sans-serif" font-size="13" lengthAdjust="spacing" textLength="4" x="247" y="786.1523">{</text><text fill="#000000" font-family="sans-serif" font-size="13" lengthAdjust="spacing" textLength="155" x="255" y="801.4629">"authorization_details": [</text><text fill="#000000" font-family="sans-serif" font-size="13" lengthAdjust="spacing" textLength="4" x="263" y="816.7734">{</text><text fill="#000000" font-family="sans-serif" font-size="13" lengthAdjust="spacing" textLength="114" x="271" y="832.084">"type": "fdx_v1.0",</text><text fill="#000000" font-family="sans-serif" font-size="13" lengthAdjust="spacing" textLength="122" x="271" y="847.3945">"consentRequest": {</text><text fill="#000000" font-family="sans-serif" font-size="13" lengthAdjust="spacing" textLength="179" x="279" y="862.7051">"durationType": "ONE_TIME",</text><text fill="#000000" font-family="sans-serif" font-size="13" lengthAdjust="spacing" textLength="135" x="279" y="878.0156">"lookbackPeriod": 60,</text><text fill="#000000" font-family="sans-serif" font-size="13" lengthAdjust="spacing" textLength="83" x="279" y="893.3262">"resources": [</text><text fill="#000000" font-family="sans-serif" font-size="13" lengthAdjust="spacing" textLength="4" x="287" y="908.6367">{</text><text fill="#000000" font-family="sans-serif" font-size="13" lengthAdjust="spacing" textLength="180" x="295" y="923.9473">"resourceType": "ACCOUNT",</text><text fill="#000000" font-family="sans-serif" font-size="13" lengthAdjust="spacing" textLength="101" x="295" y="939.2578">"dataClusters": [</text><text fill="#000000" font-family="sans-serif" font-size="13" lengthAdjust="spacing" textLength="147" x="303" y="954.5684">"ACCOUNT_DETAILED",</text><text fill="#000000" font-family="sans-serif" font-size="13" lengthAdjust="spacing" textLength="109" x="303" y="969.8789">"TRANSACTIONS"</text><text fill="#000000" font-family="sans-serif" font-size="13" lengthAdjust="spacing" textLength="4" x="295" y="985.1895">]</text><text fill="#000000" font-family="sans-serif" font-size="13" lengthAdjust="spacing" textLength="4" x="287" y="1000.5">}</text><text fill="#000000" font-family="sans-serif" font-size="13" lengthAdjust="spacing" textLength="4" x="279" y="1015.8105">]</text><text fill="#000000" font-family="sans-serif" font-size="13" lengthAdjust="spacing" textLength="4" x="271" y="1031.1211">}</text><text fill="#000000" font-family="sans-serif" font-size="13" lengthAdjust="spacing" textLength="4" x="263" y="1046.4316">}</text><text fill="#000000" font-family="sans-serif" font-size="13" lengthAdjust="spacing" textLength="4" x="255" y="1061.7422">]</text><text fill="#000000" font-family="sans-serif" font-size="13" lengthAdjust="spacing" textLength="4" x="247" y="1077.0527">}</text><polygon fill="#181818" points="901.5,1107.1055,911.5,1111.1055,901.5,1115.1055,905.5,1111.1055" style="stroke:#181818;stroke-width:1.0;"/><line style="stroke:#181818;stroke-width:1.0;" x1="236.5" x2="907.5" y1="1111.1055" y2="1111.1055"/><text fill="#000000" font-family="monospace" font-size="13" lengthAdjust="spacing" textLength="648" x="243.5" y="1106.0396">POST&#160;/par&#160;"{"authorization_details":[{"type":"fdx_v1.0","consentRequest":"...."}]</text><text fill="#000000" font-family="sans-serif" font-size="13" lengthAdjust="spacing" textLength="5" x="891.5" y="1106.3633">"</text><line style="stroke:#181818;stroke-width:1.0;" x1="913.5" x2="955.5" y1="1140.416" y2="1140.416"/><line style="stroke:#181818;stroke-width:1.0;" x1="955.5" x2="955.5" y1="1140.416" y2="1153.416"/><line style="stroke:#181818;stroke-width:1.0;" x1="914.5" x2="955.5" y1="1153.416" y2="1153.416"/><polygon fill="#181818" points="924.5,1149.416,914.5,1153.416,924.5,1157.416,920.5,1153.416" style="stroke:#181818;stroke-width:1.0;"/><text fill="#000000" font-family="sans-serif" font-size="13" lengthAdjust="spacing" textLength="117" x="920.5" y="1135.6738">Validate certificate</text><polygon fill="#181818" points="1578.5,1178.7266,1588.5,1182.7266,1578.5,1186.7266,1582.5,1182.7266" style="stroke:#181818;stroke-width:1.0;"/><line style="stroke:#181818;stroke-width:1.0;" x1="913.5" x2="1584.5" y1="1182.7266" y2="1182.7266"/><text fill="#000000" font-family="monospace" font-size="13" lengthAdjust="spacing" textLength="648" x="920.5" y="1177.6606">POST&#160;/par&#160;"{"authorization_details":[{"type":"fdx_v1.0","consentRequest":"...."}]</text><text fill="#000000" font-family="sans-serif" font-size="13" lengthAdjust="spacing" textLength="5" x="1568.5" y="1177.9844">"</text><polygon fill="#181818" points="924.5,1208.0371,914.5,1212.0371,924.5,1216.0371,920.5,1212.0371" style="stroke:#181818;stroke-width:1.0;"/><line style="stroke:#181818;stroke-width:1.0;stroke-dasharray:2.0,2.0;" x1="918.5" x2="1589.5" y1="1212.0371" y2="1212.0371"/><text fill="#000000" font-family="sans-serif" font-size="13" lengthAdjust="spacing" textLength="113" x="930.5" y="1207.2949">return request_uri</text><polygon fill="#181818" points="1087.5,1237.3477,1097.5,1241.3477,1087.5,1245.3477,1091.5,1241.3477" style="stroke:#181818;stroke-width:1.0;"/><line style="stroke:#181818;stroke-width:1.0;stroke-dasharray:2.0,2.0;" x1="913.5" x2="1093.5" y1="1241.3477" y2="1241.3477"/><text fill="#000000" font-family="sans-serif" font-size="13" lengthAdjust="spacing" textLength="94" x="920.5" y="1236.6055">Create consent</text><polygon fill="#181818" points="924.5,1266.6582,914.5,1270.6582,924.5,1274.6582,920.5,1270.6582" style="stroke:#181818;stroke-width:1.0;"/><line style="stroke:#181818;stroke-width:1.0;stroke-dasharray:2.0,2.0;" x1="918.5" x2="1098.5" y1="1270.6582" y2="1270.6582"/><text fill="#000000" font-family="sans-serif" font-size="13" lengthAdjust="spacing" textLength="102" x="930.5" y="1265.916">Consent created</text><polygon fill="#181818" points="247.5,1295.9688,237.5,1299.9688,247.5,1303.9688,243.5,1299.9688" style="stroke:#181818;stroke-width:1.0;"/><line style="stroke:#181818;stroke-width:1.0;stroke-dasharray:2.0,2.0;" x1="241.5" x2="912.5" y1="1299.9688" y2="1299.9688"/><text fill="#000000" font-family="sans-serif" font-size="13" lengthAdjust="spacing" textLength="113" x="253.5" y="1295.2266">return request_uri</text><rect fill="#EEEEEE" height="3" style="stroke:#EEEEEE;stroke-width:1.0;" width="2145" x="0" y="1328.624"/><line style="stroke:#000000;stroke-width:1.0;" x1="0" x2="2145" y1="1328.624" y2="1328.624"/><line style="stroke:#000000;stroke-width:1.0;" x1="0" x2="2145" y1="1331.624" y2="1331.624"/><rect fill="#EEEEEE" height="23.3105" style="stroke:#000000;stroke-width:2.0;" width="383" x="881" y="1317.9688"/><text fill="#000000" font-family="sans-serif" font-size="13" font-weight="bold" lengthAdjust="spacing" textLength="365" x="887" y="1334.5371">Part 3: User authentication, consent and authorization</text><path d="M241,1356.2793 L241,1381.2793 L436,1381.2793 L436,1366.2793 L426,1356.2793 L241,1356.2793 " fill="#FEFFDD" style="stroke:#181818;stroke-width:0.5;"/><path d="M426,1356.2793 L426,1366.2793 L436,1366.2793 L426,1356.2793 " fill="#FEFFDD" style="stroke:#181818;stroke-width:0.5;"/><text fill="#000000" font-family="sans-serif" font-size="13" lengthAdjust="spacing" textLength="174" x="247" y="1373.8477">Send Authorization Request</text><polygon fill="#181818" points="1578.5,1403.7227,1588.5,1407.7227,1578.5,1411.7227,1582.5,1407.7227" style="stroke:#181818;stroke-width:1.0;"/><line style="stroke:#181818;stroke-width:1.0;" x1="236.5" x2="1584.5" y1="1407.7227" y2="1407.7227"/><text fill="#000000" font-family="monospace" font-size="13" lengthAdjust="spacing" textLength="216" x="243.5" y="1402.6567">GET&#160;/authorize&amp;request_uri=</text><polygon fill="#181818" points="1993.5,1432.8555,2003.5,1436.8555,1993.5,1440.8555,1997.5,1436.8555" style="stroke:#181818;stroke-width:1.0;"/><line style="stroke:#181818;stroke-width:1.0;" x1="1590.5" x2="1999.5" y1="1436.8555" y2="1436.8555"/><text fill="#000000" font-family="monospace" font-size="13" lengthAdjust="spacing" textLength="120" x="1597.5" y="1431.7896">REDIRECT&#160;/login</text><polygon fill="#181818" points="49.5,1461.9883,39.5,1465.9883,49.5,1469.9883,45.5,1465.9883" style="stroke:#181818;stroke-width:1.0;"/><line style="stroke:#181818;stroke-width:1.0;" x1="43.5" x2="2004.5" y1="1465.9883" y2="1465.9883"/><text fill="#000000" font-family="monospace" font-size="13" lengthAdjust="spacing" textLength="80" x="55.5" y="1460.9224">USER&#160;login</text><polygon fill="#181818" points="1993.5,1491.1211,2003.5,1495.1211,1993.5,1499.1211,1997.5,1495.1211" style="stroke:#181818;stroke-width:1.0;"/><line style="stroke:#181818;stroke-width:1.0;stroke-dasharray:2.0,2.0;" x1="38.5" x2="1999.5" y1="1495.1211" y2="1495.1211"/><text fill="#000000" font-family="monospace" font-size="13" lengthAdjust="spacing" textLength="96" x="45.5" y="1490.0552">200&#160;OK&#160;{...}</text><polygon fill="#181818" points="1601.5,1535.7422,1591.5,1539.7422,1601.5,1543.7422,1597.5,1539.7422" style="stroke:#181818;stroke-width:1.0;"/><line style="stroke:#181818;stroke-width:1.0;stroke-dasharray:2.0,2.0;" x1="1595.5" x2="2004.5" y1="1539.7422" y2="1539.7422"/><text fill="#000000" font-family="sans-serif" font-size="13" lengthAdjust="spacing" textLength="261" x="1607.5" y="1519.6895">Return authentication succssful response</text><text fill="#000000" font-family="sans-serif" font-size="13" lengthAdjust="spacing" textLength="192" x="1607.5" y="1535">and customerId claim in token</text><polygon fill="#181818" points="1891.5,1580.3633,1901.5,1584.3633,1891.5,1588.3633,1895.5,1584.3633" style="stroke:#181818;stroke-width:1.0;"/><line style="stroke:#181818;stroke-width:1.0;stroke-dasharray:2.0,2.0;" x1="1590.5" x2="1897.5" y1="1584.3633" y2="1584.3633"/><text fill="#000000" font-family="sans-serif" font-size="13" lengthAdjust="spacing" textLength="116" x="1597.5" y="1564.3105">Serve Consent and</text><text fill="#000000" font-family="sans-serif" font-size="13" lengthAdjust="spacing" textLength="184" x="1597.5" y="1579.6211">Account Confirmation Screen</text><path d="M1618,1597.3633 L1618,1637.3633 L1898,1637.3633 L1898,1607.3633 L1888,1597.3633 L1618,1597.3633 " fill="#FEFFDD" style="stroke:#181818;stroke-width:0.5;"/><path d="M1888,1597.3633 L1888,1607.3633 L1898,1607.3633 L1888,1597.3633 " fill="#FEFFDD" style="stroke:#181818;stroke-width:0.5;"/><text fill="#000000" font-family="sans-serif" font-size="13" lengthAdjust="spacing" textLength="259" x="1624" y="1614.9316">Authorization Server sends the consentId</text><text fill="#000000" font-family="sans-serif" font-size="13" lengthAdjust="spacing" textLength="215" x="1624" y="1630.2422">along with some other parameters</text><polygon fill="#181818" points="1601.5,1660.2949,1591.5,1664.2949,1601.5,1668.2949,1597.5,1664.2949" style="stroke:#181818;stroke-width:1.0;"/><line style="stroke:#181818;stroke-width:1.0;stroke-dasharray:2.0,2.0;" x1="1595.5" x2="1902.5" y1="1664.2949" y2="1664.2949"/><text fill="#000000" font-family="sans-serif" font-size="13" lengthAdjust="spacing" textLength="289" x="1607.5" y="1659.5527">Get access token to call consent management</text><polygon fill="#181818" points="1891.5,1704.5605,1901.5,1708.5605,1891.5,1712.5605,1895.5,1708.5605" style="stroke:#181818;stroke-width:1.0;"/><line style="stroke:#181818;stroke-width:1.0;stroke-dasharray:2.0,2.0;" x1="1590.5" x2="1897.5" y1="1708.5605" y2="1708.5605"/><text fill="#000000" font-family="monospace" font-size="13" lengthAdjust="spacing" textLength="48" x="1597.5" y="1688.3618">200&#160;OK</text><text fill="#000000" font-family="monospace" font-size="13" lengthAdjust="spacing" textLength="184" x="1597.5" y="1703.4946">{"access_token":&#160;"..."}</text><polygon fill="#181818" points="1110.5,1733.8711,1100.5,1737.8711,1110.5,1741.8711,1106.5,1737.8711" style="stroke:#181818;stroke-width:1.0;"/><line style="stroke:#181818;stroke-width:1.0;stroke-dasharray:2.0,2.0;" x1="1104.5" x2="1902.5" y1="1737.8711" y2="1737.8711"/><text fill="#000000" font-family="sans-serif" font-size="13" lengthAdjust="spacing" textLength="339" x="1116.5" y="1733.1289">Get consent details using consentId and access token</text><polygon fill="#181818" points="1891.5,1763.1816,1901.5,1767.1816,1891.5,1771.1816,1895.5,1767.1816" style="stroke:#181818;stroke-width:1.0;"/><line style="stroke:#181818;stroke-width:1.0;stroke-dasharray:2.0,2.0;" x1="1099.5" x2="1897.5" y1="1767.1816" y2="1767.1816"/><text fill="#000000" font-family="sans-serif" font-size="13" lengthAdjust="spacing" textLength="141" x="1106.5" y="1762.4395">Return consent details</text><polygon fill="#181818" points="2073.5,1792.4922,2083.5,1796.4922,2073.5,1800.4922,2077.5,1796.4922" style="stroke:#181818;stroke-width:1.0;"/><line style="stroke:#181818;stroke-width:1.0;stroke-dasharray:2.0,2.0;" x1="1903.5" x2="2079.5" y1="1796.4922" y2="1796.4922"/><text fill="#000000" font-family="sans-serif" font-size="13" lengthAdjust="spacing" textLength="113" x="1910.5" y="1791.75">Get user accounts</text><polygon fill="#181818" points="1914.5,1821.8027,1904.5,1825.8027,1914.5,1829.8027,1910.5,1825.8027" style="stroke:#181818;stroke-width:1.0;"/><line style="stroke:#181818;stroke-width:1.0;stroke-dasharray:2.0,2.0;" x1="1908.5" x2="2084.5" y1="1825.8027" y2="1825.8027"/><text fill="#000000" font-family="sans-serif" font-size="13" lengthAdjust="spacing" textLength="133" x="1920.5" y="1821.0605">Return user accounts</text><polygon fill="#181818" points="49.5,1851.1133,39.5,1855.1133,49.5,1859.1133,45.5,1855.1133" style="stroke:#181818;stroke-width:1.0;"/><line style="stroke:#181818;stroke-width:1.0;stroke-dasharray:2.0,2.0;" x1="43.5" x2="1902.5" y1="1855.1133" y2="1855.1133"/><text fill="#000000" font-family="sans-serif" font-size="13" lengthAdjust="spacing" textLength="304" x="55.5" y="1850.3711">Serve Consent and Account Confirmation Screen</text><polygon fill="#181818" points="1891.5,1880.4238,1901.5,1884.4238,1891.5,1888.4238,1895.5,1884.4238" style="stroke:#181818;stroke-width:1.0;"/><line style="stroke:#181818;stroke-width:1.0;stroke-dasharray:2.0,2.0;" x1="38.5" x2="1897.5" y1="1884.4238" y2="1884.4238"/><text fill="#000000" font-family="sans-serif" font-size="13" lengthAdjust="spacing" textLength="200" x="45.5" y="1879.6816">Consent confirmation is correct</text><polygon fill="#181818" points="1110.5,1909.7344,1100.5,1913.7344,1110.5,1917.7344,1106.5,1913.7344" style="stroke:#181818;stroke-width:1.0;"/><line style="stroke:#181818;stroke-width:1.0;stroke-dasharray:2.0,2.0;" x1="1104.5" x2="1902.5" y1="1913.7344" y2="1913.7344"/><text fill="#000000" font-family="sans-serif" font-size="13" lengthAdjust="spacing" textLength="233" x="1116.5" y="1908.9922">Update consent resources and status</text><polygon fill="#181818" points="1891.5,1939.0449,1901.5,1943.0449,1891.5,1947.0449,1895.5,1943.0449" style="stroke:#181818;stroke-width:1.0;"/><line style="stroke:#181818;stroke-width:1.0;stroke-dasharray:2.0,2.0;" x1="1099.5" x2="1897.5" y1="1943.0449" y2="1943.0449"/><text fill="#000000" font-family="sans-serif" font-size="13" lengthAdjust="spacing" textLength="107" x="1106.5" y="1938.3027">Consent updated</text><polygon fill="#181818" points="1578.5,1968.3555,1588.5,1972.3555,1578.5,1976.3555,1582.5,1972.3555" style="stroke:#181818;stroke-width:1.0;"/><line style="stroke:#181818;stroke-width:1.0;stroke-dasharray:2.0,2.0;" x1="1099.5" x2="1584.5" y1="1972.3555" y2="1972.3555"/><text fill="#000000" font-family="sans-serif" font-size="13" lengthAdjust="spacing" textLength="136" x="1106.5" y="1967.6133">Redirect with success</text><polygon fill="#181818" points="247.5,1997.4883,237.5,2001.4883,247.5,2005.4883,243.5,2001.4883" style="stroke:#181818;stroke-width:1.0;"/><line style="stroke:#181818;stroke-width:1.0;stroke-dasharray:2.0,2.0;" x1="241.5" x2="1589.5" y1="2001.4883" y2="2001.4883"/><text fill="#000000" font-family="monospace" font-size="13" lengthAdjust="spacing" textLength="168" x="253.5" y="1996.4224">200&#160;OK&#160;{"code":"..."}</text><path d="M241,2014.4883 L241,2039.4883 L694,2039.4883 L694,2024.4883 L684,2014.4883 L241,2014.4883 " fill="#FEFFDD" style="stroke:#181818;stroke-width:0.5;"/><path d="M684,2014.4883 L684,2024.4883 L694,2024.4883 L684,2014.4883 " fill="#FEFFDD" style="stroke:#181818;stroke-width:0.5;"/><text fill="#000000" font-family="sans-serif" font-size="13" lengthAdjust="spacing" textLength="432" x="247" y="2032.0566">The DR then obtains the Access Token using the Authorization Code</text><polygon fill="#181818" points="1578.5,2061.9316,1588.5,2065.9316,1578.5,2069.9316,1582.5,2065.9316" style="stroke:#181818;stroke-width:1.0;"/><line style="stroke:#181818;stroke-width:1.0;" x1="236.5" x2="1584.5" y1="2065.9316" y2="2065.9316"/><text fill="#000000" font-family="monospace" font-size="13" lengthAdjust="spacing" textLength="88" x="243.5" y="2060.8657">POST&#160;/token</text><line style="stroke:#181818;stroke-width:1.0;" x1="1590.5" x2="1632.5" y1="2095.2422" y2="2095.2422"/><line style="stroke:#181818;stroke-width:1.0;" x1="1632.5" x2="1632.5" y1="2095.2422" y2="2108.2422"/><line style="stroke:#181818;stroke-width:1.0;" x1="1591.5" x2="1632.5" y1="2108.2422" y2="2108.2422"/><polygon fill="#181818" points="1601.5,2104.2422,1591.5,2108.2422,1601.5,2112.2422,1597.5,2108.2422" style="stroke:#181818;stroke-width:1.0;"/><text fill="#000000" font-family="sans-serif" font-size="13" lengthAdjust="spacing" textLength="77" x="1597.5" y="2090.5">Verify Client</text><polygon fill="#181818" points="247.5,2148.5078,237.5,2152.5078,247.5,2156.5078,243.5,2152.5078" style="stroke:#181818;stroke-width:1.0;"/><line style="stroke:#181818;stroke-width:1.0;" x1="241.5" x2="1589.5" y1="2152.5078" y2="2152.5078"/><text fill="#000000" font-family="monospace" font-size="13" lengthAdjust="spacing" textLength="48" x="253.5" y="2132.3091">200&#160;OK</text><text fill="#000000" font-family="monospace" font-size="13" lengthAdjust="spacing" textLength="184" x="253.5" y="2147.4419">{"access_token":&#160;"..."}</text><rect fill="#EEEEEE" height="3" style="stroke:#EEEEEE;stroke-width:1.0;" width="2145" x="0" y="2181.1631"/><line style="stroke:#000000;stroke-width:1.0;" x1="0" x2="2145" y1="2181.1631" y2="2181.1631"/><line style="stroke:#000000;stroke-width:1.0;" x1="0" x2="2145" y1="2184.1631" y2="2184.1631"/><rect fill="#EEEEEE" height="23.3105" style="stroke:#000000;stroke-width:2.0;" width="155" x="995" y="2170.5078"/><text fill="#000000" font-family="sans-serif" font-size="13" font-weight="bold" lengthAdjust="spacing" textLength="137" x="1001" y="2187.0762">Part 4: Request Data</text><path d="M241,2208.8184 L241,2271.8184 L683,2271.8184 L683,2218.8184 L673,2208.8184 L241,2208.8184 " fill="#FEFFDD" style="stroke:#181818;stroke-width:0.5;"/><path d="M673,2208.8184 L673,2218.8184 L683,2218.8184 L673,2208.8184 " fill="#FEFFDD" style="stroke:#181818;stroke-width:0.5;"/><text fill="#000000" font-family="sans-serif" font-size="13" font-weight="bold" lengthAdjust="spacing" textLength="138" x="247" y="2226.3867">Account Information</text><line style="stroke:#181818;stroke-width:1.0;" x1="242" x2="682" y1="2229.1289" y2="2229.1289"/><text fill="#000000" font-family="sans-serif" font-size="13" lengthAdjust="spacing" textLength="421" x="247" y="2245.6973">DRs use a generic endpoint for Account Information that covers all</text><text fill="#000000" font-family="sans-serif" font-size="13" lengthAdjust="spacing" textLength="305" x="247" y="2261.0078">account types (checking, credit card, loans, etc).</text><path d="M188,2284.75 L262,2284.75 L262,2292.0605 L252,2302.0605 L188,2302.0605 L188,2284.75 " fill="#EEEEEE" style="stroke:#000000;stroke-width:1.5;"/><rect fill="none" height="315.127" style="stroke:#000000;stroke-width:1.5;" width="1942" x="188" y="2284.75"/><text fill="#000000" font-family="sans-serif" font-size="13" font-weight="bold" lengthAdjust="spacing" textLength="29" x="203" y="2298.3184">loop</text><text fill="#000000" font-family="sans-serif" font-size="11" font-weight="bold" lengthAdjust="spacing" textLength="50" x="277" y="2297.3848">[n times]</text><polygon fill="#181818" points="901.5,2319.1934,911.5,2323.1934,901.5,2327.1934,905.5,2323.1934" style="stroke:#181818;stroke-width:1.0;"/><line style="stroke:#181818;stroke-width:1.0;" x1="236.5" x2="907.5" y1="2323.1934" y2="2323.1934"/><text fill="#000000" font-family="monospace" font-size="13" lengthAdjust="spacing" textLength="256" x="243.5" y="2318.1274">GET&#160;/fdx/{version}/core/accounts</text><path d="M918,2336.1934 L918,2361.1934 L1080,2361.1934 L1080,2346.1934 L1070,2336.1934 L918,2336.1934 " fill="#FEFFDD" style="stroke:#181818;stroke-width:0.5;"/><path d="M1070,2336.1934 L1070,2346.1934 L1080,2346.1934 L1070,2336.1934 " fill="#FEFFDD" style="stroke:#181818;stroke-width:0.5;"/><text fill="#000000" font-family="sans-serif" font-size="13" lengthAdjust="spacing" textLength="141" x="924" y="2353.7617">Validate Access Token</text><line style="stroke:#181818;stroke-width:1.0;stroke-dasharray:2.0,2.0;" x1="913.5" x2="955.5" y1="2387.8145" y2="2387.8145"/><line style="stroke:#181818;stroke-width:1.0;stroke-dasharray:2.0,2.0;" x1="955.5" x2="955.5" y1="2387.8145" y2="2400.8145"/><line style="stroke:#181818;stroke-width:1.0;stroke-dasharray:2.0,2.0;" x1="914.5" x2="955.5" y1="2400.8145" y2="2400.8145"/><polygon fill="#181818" points="924.5,2396.8145,914.5,2400.8145,924.5,2404.8145,920.5,2400.8145" style="stroke:#181818;stroke-width:1.0;"/><text fill="#000000" font-family="sans-serif" font-size="13" lengthAdjust="spacing" textLength="172" x="920.5" y="2383.0723">Verify Access Token claims</text><polygon fill="#181818" points="1204,2425.9473,1214,2429.9473,1204,2433.9473,1208,2429.9473" style="stroke:#181818;stroke-width:1.0;"/><line style="stroke:#181818;stroke-width:1.0;" x1="913.5" x2="1210" y1="2429.9473" y2="2429.9473"/><text fill="#000000" font-family="monospace" font-size="13" lengthAdjust="spacing" textLength="256" x="920.5" y="2424.8813">GET&#160;/fdx/{version}/core/accounts</text><polygon fill="#181818" points="2073.5,2455.0801,2083.5,2459.0801,2073.5,2463.0801,2077.5,2459.0801" style="stroke:#181818;stroke-width:1.0;"/><line style="stroke:#181818;stroke-width:1.0;" x1="1216" x2="2079.5" y1="2459.0801" y2="2459.0801"/><text fill="#000000" font-family="monospace" font-size="13" lengthAdjust="spacing" textLength="256" x="1223" y="2454.0142">GET&#160;/fdx/{version}/core/accounts</text><polygon fill="#181818" points="1227,2499.3457,1217,2503.3457,1227,2507.3457,1223,2503.3457" style="stroke:#181818;stroke-width:1.0;"/><line style="stroke:#181818;stroke-width:1.0;" x1="1221" x2="2084.5" y1="2503.3457" y2="2503.3457"/><text fill="#000000" font-family="monospace" font-size="13" lengthAdjust="spacing" textLength="48" x="1233" y="2483.147">200&#160;OK</text><text fill="#000000" font-family="monospace" font-size="13" lengthAdjust="spacing" textLength="152" x="1233" y="2498.2798">{"accounts":&#160;"..."}</text><polygon fill="#181818" points="924.5,2543.6113,914.5,2547.6113,924.5,2551.6113,920.5,2547.6113" style="stroke:#181818;stroke-width:1.0;"/><line style="stroke:#181818;stroke-width:1.0;" x1="918.5" x2="1215" y1="2547.6113" y2="2547.6113"/><text fill="#000000" font-family="monospace" font-size="13" lengthAdjust="spacing" textLength="48" x="930.5" y="2527.4126">200&#160;OK</text><text fill="#000000" font-family="monospace" font-size="13" lengthAdjust="spacing" textLength="152" x="930.5" y="2542.5454">{"accounts":&#160;"..."}</text><polygon fill="#181818" points="247.5,2587.877,237.5,2591.877,247.5,2595.877,243.5,2591.877" style="stroke:#181818;stroke-width:1.0;"/><line style="stroke:#181818;stroke-width:1.0;" x1="241.5" x2="912.5" y1="2591.877" y2="2591.877"/><text fill="#000000" font-family="monospace" font-size="13" lengthAdjust="spacing" textLength="48" x="253.5" y="2571.6782">200&#160;OK</text><text fill="#000000" font-family="monospace" font-size="13" lengthAdjust="spacing" textLength="152" x="253.5" y="2586.811">{"accounts":&#160;"..."}</text><!--SRC=[lLXjRzj64lxENp5WWMiRs8wRIzCxepb0bXH3kCOM9BcveWgCDRcIzaBjijobRTNnV-ypkoH5IdARJtK0I-REopCppyuCuvJB9Cqr_uiYaJXJK3pKALrRMSGaB8sdrr4k2gSIbGljA1u89-Pw8l6tajfveS4aYcxD0_NMUQOM6xhAfQPpeJyflQIlthph_MlGxrhfZKTpVI6Sl1SRRm8FRYvwi-67tYzToRxH5dxc-htGOYdNjS_-rULqU3dR5IvautYkeQib1nKqpdT1b6vb2lMxSCfecihYhWfwr7iVIMG1CON0tYajTA94HYDjdN8bQtnjoMwiasjBN_txTVBwX_GWShee1EFlvNaR-Cs7uNbNVfH2MhdDN8yBSwVI2anlEfwEzwMhAETw6Z2qP97BBlnEMe0ZKucF6S3JxyMRspJQog_Wc1R6EFxhQmiLk1LhIkL2b9bxPxIx56j94tDhd8cs0kVcOIpIb5syEeqYRPoaGYrNZip2q-WAwRrJyZvw-_PjD5ifIwaIIrQrApBtbjnA4d0SEtFCSExbBVtVb8MM6m0goDmweJJRhpCh86KTPmKFdQ74P1dg7VMIn9Gu7sdehKDvK_3sX6PmiJIe8xn38Sz48htVnAnpes7Kqg8mQ_-iLoGhvM2mHFeQz4f3M3lvu4vyrZZG237H643ekpFS1hhoK2tLLwb1ZCWFPMOliWP3Om60IrkABDkGAPtbAl6vJKmksGvmhZJgcd56T2gArFfmetvfdLd3ml0XbmNkB2A-AA6VAIqj8PntW__XWrDbQMNk6n1sPSeCj90eb4MgDZBrAG-5aEb9zFdpvuXJQdFqWuLAh4V2fSqBaqXhIHGUPo4Np464pbRlDV6ZK0vkADJq4_fcCFaMmKR2sd8DXwZIIjn9KkWj_lRpC_Pmh_2XVHAMst0g90nkMnpac8x_WyASWH8farz27Qo3SRjYYCmEB_RZyR6N6uI8SIlX4IrdhjK90BCSQo4d8k40PJhNu6OkDeojEbgBLBQT8g4BLQoHPBRLyJFbXD_YQfALp5scgaqAAVKX0rt1BUjUUTRr2ud8hA_HJoPTuciD_m3nqBG_88KL-qF5VVLQfAihxP_2Go8qKdgFpopppw93FPIREGbNMIuAeFN8J-YI4VWJfeX1FYYgsLOJ74mkkF0DTFGrvK02InjPPpW92M521Z_UVgla05ldpcU5WZKkL6P4UY0PKrOUbs15DwQ9_AsKrZLSHxUZ8ZoZzzVJcUy6o1BIJgAZcKeypopv_YWHbhVn61757S6RIZ0-erznIFJeVqFCRNA9f_4YVRYv- -xaD3wgJwgALU0WK-lWB2qBRtTMQLzT3czce_V3HXiocJ6VRaNoQOoMO598lJbjdHRIel62tmsayFFO-juIgntr-lshwyjPoq_0WqlJpz26PB5hq9zNQZU3uQmt-causD67n6pIkvps-hCHPcVSEVpO-kifsdqQdl3lZz7J7ZjQEmV0n-Ch5FCbbpT-VAv0lpvMDMcLPAyMyGb-ugUFSHn7BHzxBdyMcKgPcud425lulhIhW5NaRy76_SZxAYJ6dQuPVbCMgWi9cAeDfhbQbOyzUrkvweedNZxbzFDv9na7_3RjxPzdeHrnuBmZXUtbg6bRtF2wL-zWk_Ct_F3btgL6bVQB8R9UMvR_Q85xY_n1oDUqNj1OOp8SZ2R3FjGoirIQirmVionwEajTJuSJgWLydz-ry-hqbAx-Iu-erbFNI8rk4XBMpGdPCaciNPGPCcbppizSStgIQWiOuMic5CyYjD9F63C-YcrL0m3VoDjx5lRNQgcgPb7LyCEeygdEvC9dkhtW7XmFi9dQzjmPfP783DOVdkbaWPCCBmtRpcct5MgPtoRZ0fCX3EGGbTy6UKZL55atRm-70wup7cFIntp7lB4RRunRcxyrACIkzuRZZA1sLZV-ql9ErmGPUDf2MLlRXrCLTyVWdlTctm_-Itz9Gfrir1m-QxuZJtlMFLdtc41_HeIQonrlpVLlAs3SLxl1ypczpjDMVw5cAjMBloljyocilPRUIDeHh2vGglnk4bXN-i8qxE3LONiDqKTJ6Rgdfy5-Svc53OalOxKs1OhtGhrddfM14FvnvsBqOVsv7XHQVo1YqtFysS-OtNZRxcUyE8UcMYjz6PcR1llwhEw4OHr7-zmByCMB0wzLBrv4nyV7yCransf7Iwc1Ak7tkB3VyPlReVSnjnBC2FG3b3FBeeg6n2FCqZV9IYRykdh4GoF5_fVWZUO8FLDeUqJI9T-sjpriCpd1fbfB-ynqzwqSW_7b8xi4WgUNu9zyMTCVwUY6tFuVYMPIjwkvzRyx8BjJFbIfmmFVWktkhE-VzxyGAIIfU_s_IAtL4HflUqm9mksMLpdhvlElzNQYQr-eFrFZj4P_0000]--></g></svg>