<?xml version="1.0" encoding="us-ascii" standalone="no"?><svg xmlns="http://www.w3.org/2000/svg" xmlns:xlink="http://www.w3.org/1999/xlink" contentStyleType="text/css" height="2301px" preserveAspectRatio="none" style="width:1861px;height:2301px;background:#FFFFFF;" version="1.1" viewBox="0 0 1861 2301" width="1861px" zoomAndPan="magnify"><defs/><g><text fill="#000000" font-family="sans-serif" font-size="14" font-weight="bold" lengthAdjust="spacing" textLength="5" x="924.25" y="27.9951">&#160;</text><text fill="#000000" font-family="sans-serif" font-size="14" font-weight="bold" lengthAdjust="spacing" textLength="5" x="924.25" y="44.292">&#160;</text><text fill="#000000" font-family="sans-serif" font-size="14" font-weight="bold" lengthAdjust="spacing" textLength="5" x="924.25" y="60.5889">&#160;</text><text fill="#000000" font-family="sans-serif" font-size="14" font-weight="bold" lengthAdjust="spacing" textLength="5" x="924.25" y="76.8857">&#160;</text><rect fill="#6FA8DC" height="2196.1797" style="stroke:#181818;stroke-width:0.5;" width="404" x="734" y="92.1875"/><text fill="#000000" font-family="sans-serif" font-size="13" font-weight="bold" lengthAdjust="spacing" textLength="142" x="862.5" y="104.2544">Amplify Integration</text><rect fill="#94C47D" height="2196.1797" style="stroke:#181818;stroke-width:0.5;" width="292" x="1225" y="92.1875"/><text fill="#000000" font-family="sans-serif" font-size="13" font-weight="bold" lengthAdjust="spacing" textLength="203" x="1267" y="104.2544">Identity and Access Control</text><rect fill="#D5A6BD" height="2196.1797" style="stroke:#181818;stroke-width:0.5;" width="206" x="1627.5" y="92.1875"/><text fill="#000000" font-family="sans-serif" font-size="13" font-weight="bold" lengthAdjust="spacing" textLength="195" x="1630.5" y="104.2544">Core Banking Applications</text><line style="stroke:#181818;stroke-width:0.5;stroke-dasharray:5.0,5.0;" x1="39" x2="39" y1="175.2109" y2="2294.3672"/><line style="stroke:#181818;stroke-width:0.5;stroke-dasharray:5.0,5.0;" x1="240" x2="240" y1="175.2109" y2="2294.3672"/><line style="stroke:#181818;stroke-width:0.5;stroke-dasharray:5.0,5.0;" x1="774" x2="774" y1="175.2109" y2="2294.3672"/><line style="stroke:#181818;stroke-width:0.5;stroke-dasharray:5.0,5.0;" x1="960" x2="960" y1="175.2109" y2="2294.3672"/><line style="stroke:#181818;stroke-width:0.5;stroke-dasharray:5.0,5.0;" x1="1078" x2="1078" y1="175.2109" y2="2294.3672"/><line style="stroke:#181818;stroke-width:0.5;stroke-dasharray:5.0,5.0;" x1="1308" x2="1308" y1="175.2109" y2="2294.3672"/><line style="stroke:#181818;stroke-width:0.5;stroke-dasharray:5.0,5.0;" x1="1455" x2="1455" y1="175.2109" y2="2294.3672"/><line style="stroke:#181818;stroke-width:0.5;stroke-dasharray:5.0,5.0;" x1="1689" x2="1689" y1="175.2109" y2="2294.3672"/><line style="stroke:#181818;stroke-width:0.5;stroke-dasharray:5.0,5.0;" x1="1770" x2="1770" y1="175.2109" y2="2294.3672"/><text fill="#000000" font-family="sans-serif" font-size="14" lengthAdjust="spacing" textLength="63" x="5" y="171.9092">End User</text><ellipse cx="39.5" cy="107.4141" fill="#E2E2F0" rx="8" ry="8" style="stroke:#181818;stroke-width:0.5;"/><path d="M39.5,115.4141 L39.5,142.4141 M26.5,123.4141 L52.5,123.4141 M39.5,142.4141 L26.5,157.4141 M39.5,142.4141 L52.5,157.4141 " fill="none" style="stroke:#181818;stroke-width:0.5;"/><rect fill="#E2E2F0" height="46.5938" rx="2.5" ry="2.5" style="stroke:#181818;stroke-width:0.5;" width="79" x="201" y="127.6172"/><text fill="#000000" font-family="sans-serif" font-size="14" lengthAdjust="spacing" textLength="32" x="224.5" y="147.6123">Data</text><text fill="#000000" font-family="sans-serif" font-size="14" lengthAdjust="spacing" textLength="65" x="208" y="163.9092">Recipient</text><rect fill="#E2E2F0" height="46.5938" rx="2.5" ry="2.5" style="stroke:#181818;stroke-width:0.5;" width="73" x="738" y="127.6172"/><text fill="#000000" font-family="sans-serif" font-size="14" lengthAdjust="spacing" textLength="21" x="764" y="147.6123">API</text><text fill="#000000" font-family="sans-serif" font-size="14" lengthAdjust="spacing" textLength="59" x="745" y="163.9092">Gateway</text><rect fill="#E2E2F0" height="46.5938" rx="2.5" ry="2.5" style="stroke:#181818;stroke-width:0.5;" width="105" x="908" y="127.6172"/><text fill="#000000" font-family="sans-serif" font-size="14" lengthAdjust="spacing" textLength="59" x="931" y="147.6123">Consent</text><text fill="#000000" font-family="sans-serif" font-size="14" lengthAdjust="spacing" textLength="91" x="915" y="163.9092">Management</text><rect fill="#E2E2F0" height="46.5938" rx="2.5" ry="2.5" style="stroke:#181818;stroke-width:0.5;" width="111" x="1023" y="127.6172"/><text fill="#000000" font-family="sans-serif" font-size="14" lengthAdjust="spacing" textLength="93" x="1030" y="147.6123">Core Banking</text><text fill="#000000" font-family="sans-serif" font-size="14" lengthAdjust="spacing" textLength="73" x="1042" y="163.9092">Connector</text><rect fill="#E2E2F0" height="62.8906" rx="2.5" ry="2.5" style="stroke:#181818;stroke-width:0.5;" width="159" x="1229" y="111.3203"/><text fill="#000000" font-family="sans-serif" font-size="14" lengthAdjust="spacing" textLength="145" x="1236" y="131.3154">Identity Management</text><text fill="#000000" font-family="sans-serif" font-size="14" lengthAdjust="spacing" textLength="15" x="1301" y="147.6123">---</text><text fill="#000000" font-family="sans-serif" font-size="14" lengthAdjust="spacing" textLength="139" x="1239" y="163.9092">Authorization Server</text><rect fill="#E2E2F0" height="46.5938" rx="2.5" ry="2.5" style="stroke:#181818;stroke-width:0.5;" width="115" x="1398" y="127.6172"/><text fill="#000000" font-family="sans-serif" font-size="14" lengthAdjust="spacing" textLength="101" x="1405" y="147.6123">Consent Grant</text><text fill="#000000" font-family="sans-serif" font-size="14" lengthAdjust="spacing" textLength="27" x="1442" y="163.9092">App</text><rect fill="#E2E2F0" height="62.8906" rx="2.5" ry="2.5" style="stroke:#181818;stroke-width:0.5;" width="70" x="1654" y="111.3203"/><text fill="#000000" font-family="sans-serif" font-size="14" lengthAdjust="spacing" textLength="56" x="1661" y="131.3154">Banking</text><text fill="#000000" font-family="sans-serif" font-size="14" lengthAdjust="spacing" textLength="50" x="1664" y="147.6123">Identity</text><text fill="#000000" font-family="sans-serif" font-size="14" lengthAdjust="spacing" textLength="56" x="1661" y="163.9092">Provider</text><rect fill="#E2E2F0" height="46.5938" rx="2.5" ry="2.5" style="stroke:#181818;stroke-width:0.5;" width="73" x="1734" y="127.6172"/><text fill="#000000" font-family="sans-serif" font-size="14" lengthAdjust="spacing" textLength="56" x="1742.5" y="147.6123">Banking</text><text fill="#000000" font-family="sans-serif" font-size="14" lengthAdjust="spacing" textLength="59" x="1741" y="163.9092">Systems</text><path d="M44,190.2109 L44,268.2109 L669,268.2109 L669,200.2109 L659,190.2109 L44,190.2109 " fill="#FEFFDD" style="stroke:#181818;stroke-width:0.5;"/><path d="M659,190.2109 L659,200.2109 L669,200.2109 L659,190.2109 " fill="#FEFFDD" style="stroke:#181818;stroke-width:0.5;"/><text fill="#000000" font-family="sans-serif" font-size="13" lengthAdjust="spacing" textLength="57" x="50" y="207.2778">Overview</text><line style="stroke:#181818;stroke-width:1.0;" x1="45" x2="668" y1="210.3438" y2="210.3438"/><line style="stroke:#181818;stroke-width:1.0;" x1="45" x2="668" y1="212.3438" y2="212.3438"/><text fill="#000000" font-family="sans-serif" font-size="13" lengthAdjust="spacing" textLength="593" x="50" y="226.4106">This diagram sh ows the end-to-end web journey for obtaining Consent and starting to collect</text><text fill="#000000" font-family="sans-serif" font-size="13" lengthAdjust="spacing" textLength="604" x="50" y="241.5435">Account Information data. The goal is to place the components from the Architecture Overview</text><text fill="#000000" font-family="sans-serif" font-size="13" lengthAdjust="spacing" textLength="67" x="50" y="256.6763">in context.</text><rect fill="#EEEEEE" height="3" style="stroke:#EEEEEE;stroke-width:1.0;" width="1854.5" x="0" y="294.3086"/><line style="stroke:#000000;stroke-width:1.0;" x1="0" x2="1854.5" y1="294.3086" y2="294.3086"/><line style="stroke:#000000;stroke-width:1.0;" x1="0" x2="1854.5" y1="297.3086" y2="297.3086"/><rect fill="#EEEEEE" height="23.1328" style="stroke:#000000;stroke-width:2.0;" width="293" x="780.75" y="283.7422"/><text fill="#000000" font-family="sans-serif" font-size="13" font-weight="bold" lengthAdjust="spacing" textLength="274" x="786.75" y="299.8091">Part 1: DR Obtains End User Consent</text><path d="M44,321.875 L44,395.875 L676,395.875 L676,331.875 L666,321.875 L44,321.875 " fill="#FEFFDD" style="stroke:#181818;stroke-width:0.5;"/><path d="M666,321.875 L666,331.875 L676,331.875 L666,321.875 " fill="#FEFFDD" style="stroke:#181818;stroke-width:0.5;"/><text fill="#000000" font-family="sans-serif" font-size="13" lengthAdjust="spacing" textLength="595" x="50" y="338.9419">Obtaining Consent from the End User is usually outside the scope of technical standards. The</text><text fill="#000000" font-family="sans-serif" font-size="13" lengthAdjust="spacing" textLength="611" x="50" y="354.0747">Customer Experience Guidelines in FDX informs how Consent should be displayed and obtained.</text><line style="stroke:#000000;stroke-width:0.5;" x1="50" x2="50" y1="359.1406" y2="359.1406"/><line style="stroke:#000000;stroke-width:0.5;" x1="50" x2="50" y1="359.1406" y2="359.1406"/><line style="stroke:#000000;stroke-width:0.5;" x1="50" x2="50" y1="359.1406" y2="359.1406"/><text fill="#000000" font-family="sans-serif" font-size="13" lengthAdjust="spacing" textLength="542" x="50" y="373.2075">The specifics of this process are therefore not shown here. The Data Recipient (DR) is</text><text fill="#000000" font-family="sans-serif" font-size="13" lengthAdjust="spacing" textLength="424" x="50" y="388.3403">assumed to have implemented this within the guidelines specified.</text><polygon fill="#181818" points="228.5,418.5391,238.5,422.5391,228.5,426.5391,232.5,422.5391" style="stroke:#181818;stroke-width:1.0;"/><line style="stroke:#181818;stroke-width:1.0;" x1="39.5" x2="234.5" y1="422.5391" y2="422.5391"/><text fill="#000000" font-family="sans-serif" font-size="13" lengthAdjust="spacing" textLength="171" x="46.5" y="417.4731">Indicate wish to share data</text><polygon fill="#181818" points="50.5,477.9375,40.5,481.9375,50.5,485.9375,46.5,481.9375" style="stroke:#181818;stroke-width:1.0;"/><line style="stroke:#181818;stroke-width:1.0;stroke-dasharray:2.0,2.0;" x1="44.5" x2="239.5" y1="481.9375" y2="481.9375"/><text fill="#000000" font-family="sans-serif" font-size="13" lengthAdjust="spacing" textLength="97" x="56.5" y="446.606">Display "Intent"</text><text fill="#000000" font-family="sans-serif" font-size="13" lengthAdjust="spacing" textLength="153" x="56.5" y="461.7388">i.e. data to be accessed</text><text fill="#000000" font-family="sans-serif" font-size="13" lengthAdjust="spacing" textLength="152" x="56.5" y="476.8716">or payment to be made</text><polygon fill="#181818" points="228.5,507.0703,238.5,511.0703,228.5,515.0703,232.5,511.0703" style="stroke:#181818;stroke-width:1.0;"/><line style="stroke:#181818;stroke-width:1.0;" x1="39.5" x2="234.5" y1="511.0703" y2="511.0703"/><text fill="#000000" font-family="sans-serif" font-size="13" lengthAdjust="spacing" textLength="91" x="46.5" y="506.0044">Confirm intent</text><polygon fill="#181818" points="50.5,536.2031,40.5,540.2031,50.5,544.2031,46.5,540.2031" style="stroke:#181818;stroke-width:1.0;"/><line style="stroke:#181818;stroke-width:1.0;stroke-dasharray:2.0,2.0;" x1="44.5" x2="239.5" y1="540.2031" y2="540.2031"/><text fill="#000000" font-family="sans-serif" font-size="13" lengthAdjust="spacing" textLength="177" x="56.5" y="535.1372">Show bank selection screen</text><polygon fill="#181818" points="228.5,565.3359,238.5,569.3359,228.5,573.3359,232.5,569.3359" style="stroke:#181818;stroke-width:1.0;"/><line style="stroke:#181818;stroke-width:1.0;" x1="39.5" x2="234.5" y1="569.3359" y2="569.3359"/><text fill="#000000" font-family="sans-serif" font-size="13" lengthAdjust="spacing" textLength="146" x="46.5" y="564.27">Confirm bank selection</text><rect fill="#EEEEEE" height="3" style="stroke:#EEEEEE;stroke-width:1.0;" width="1854.5" x="0" y="597.9023"/><line style="stroke:#000000;stroke-width:1.0;" x1="0" x2="1854.5" y1="597.9023" y2="597.9023"/><line style="stroke:#000000;stroke-width:1.0;" x1="0" x2="1854.5" y1="600.9023" y2="600.9023"/><rect fill="#EEEEEE" height="23.1328" style="stroke:#000000;stroke-width:2.0;" width="311" x="771.75" y="587.3359"/><text fill="#000000" font-family="sans-serif" font-size="13" font-weight="bold" lengthAdjust="spacing" textLength="292" x="777.75" y="603.4028">Part 2: DR Creates and Lodges "Intent"</text><path d="M245,625.4688 L245,680.4688 L741,680.4688 L741,635.4688 L731,625.4688 L245,625.4688 " fill="#FEFFDD" style="stroke:#181818;stroke-width:0.5;"/><path d="M731,625.4688 L731,635.4688 L741,635.4688 L731,625.4688 " fill="#FEFFDD" style="stroke:#181818;stroke-width:0.5;"/><text fill="#000000" font-family="sans-serif" font-size="13" lengthAdjust="spacing" textLength="423" x="251" y="642.5356">With the consent of the End User obtained the DR can now call the</text><text fill="#000000" font-family="sans-serif" font-size="13" lengthAdjust="spacing" textLength="400" x="251" y="657.6685">Authorization Server API at the correct bank. Note at this point</text><text fill="#000000" font-family="sans-serif" font-size="13" lengthAdjust="spacing" textLength="475" x="251" y="672.8013">Consent is usual termed "Intent" as it has yet to be confirmed at the bank.</text><line style="stroke:#181818;stroke-width:1.0;" x1="240.5" x2="282.5" y1="707" y2="707"/><line style="stroke:#181818;stroke-width:1.0;" x1="282.5" x2="282.5" y1="707" y2="720"/><line style="stroke:#181818;stroke-width:1.0;" x1="241.5" x2="282.5" y1="720" y2="720"/><polygon fill="#181818" points="251.5,716,241.5,720,251.5,724,247.5,720" style="stroke:#181818;stroke-width:1.0;"/><text fill="#000000" font-family="sans-serif" font-size="13" lengthAdjust="spacing" textLength="138" x="247.5" y="701.9341">Create Intent payload</text><path d="M245,733 L245,1083 L685,1083 L685,743 L675,733 L245,733 " fill="#FEFFDD" style="stroke:#181818;stroke-width:0.5;"/><path d="M675,733 L675,743 L685,743 L675,733 " fill="#FEFFDD" style="stroke:#181818;stroke-width:0.5;"/><text fill="#000000" font-family="sans-serif" font-size="13" lengthAdjust="spacing" textLength="213" x="251" y="750.0669">Send Push Authorization Request</text><line style="stroke:#000000;stroke-width:0.5;" x1="251" x2="251" y1="755.1328" y2="755.1328"/><line style="stroke:#000000;stroke-width:0.5;" x1="251" x2="251" y1="755.1328" y2="755.1328"/><line style="stroke:#000000;stroke-width:0.5;" x1="251" x2="251" y1="755.1328" y2="755.1328"/><text fill="#000000" font-family="sans-serif" font-size="13" lengthAdjust="spacing" textLength="419" x="251" y="769.1997">The par request MUST contain an authorization details parameter</text><line style="stroke:#000000;stroke-width:0.5;" x1="251" x2="251" y1="774.2656" y2="774.2656"/><line style="stroke:#000000;stroke-width:0.5;" x1="251" x2="251" y1="774.2656" y2="774.2656"/><line style="stroke:#000000;stroke-width:0.5;" x1="251" x2="251" y1="774.2656" y2="774.2656"/><text fill="#000000" font-family="sans-serif" font-size="13" lengthAdjust="spacing" textLength="8" x="251" y="788.3325">{</text><text fill="#000000" font-family="sans-serif" font-size="13" lengthAdjust="spacing" textLength="156" x="259" y="803.4653">"authorization_details": [</text><text fill="#000000" font-family="sans-serif" font-size="13" lengthAdjust="spacing" textLength="8" x="267" y="818.5981">{</text><text fill="#000000" font-family="sans-serif" font-size="13" lengthAdjust="spacing" textLength="113" x="275" y="833.731">"type": "fdx_v1.0",</text><text fill="#000000" font-family="sans-serif" font-size="13" lengthAdjust="spacing" textLength="129" x="275" y="848.8638">"consentRequest": {</text><text fill="#000000" font-family="sans-serif" font-size="13" lengthAdjust="spacing" textLength="179" x="283" y="863.9966">"durationType": "ONE_TIME",</text><text fill="#000000" font-family="sans-serif" font-size="13" lengthAdjust="spacing" textLength="134" x="283" y="879.1294">"lookbackPeriod": 60,</text><text fill="#000000" font-family="sans-serif" font-size="13" lengthAdjust="spacing" textLength="86" x="283" y="894.2622">"resources": [</text><text fill="#000000" font-family="sans-serif" font-size="13" lengthAdjust="spacing" textLength="8" x="291" y="909.395">{</text><text fill="#000000" font-family="sans-serif" font-size="13" lengthAdjust="spacing" textLength="182" x="299" y="924.5278">"resourceType": "ACCOUNT",</text><text fill="#000000" font-family="sans-serif" font-size="13" lengthAdjust="spacing" textLength="104" x="299" y="939.6606">"dataClusters": [</text><text fill="#000000" font-family="sans-serif" font-size="13" lengthAdjust="spacing" textLength="147" x="307" y="954.7935">"ACCOUNT_DETAILED",</text><text fill="#000000" font-family="sans-serif" font-size="13" lengthAdjust="spacing" textLength="110" x="307" y="969.9263">"TRANSACTIONS"</text><text fill="#000000" font-family="sans-serif" font-size="13" lengthAdjust="spacing" textLength="5" x="299" y="985.0591">]</text><text fill="#000000" font-family="sans-serif" font-size="13" lengthAdjust="spacing" textLength="8" x="291" y="1000.1919">}</text><text fill="#000000" font-family="sans-serif" font-size="13" lengthAdjust="spacing" textLength="5" x="283" y="1015.3247">]</text><text fill="#000000" font-family="sans-serif" font-size="13" lengthAdjust="spacing" textLength="8" x="275" y="1030.4575">}</text><text fill="#000000" font-family="sans-serif" font-size="13" lengthAdjust="spacing" textLength="8" x="267" y="1045.5903">}</text><text fill="#000000" font-family="sans-serif" font-size="13" lengthAdjust="spacing" textLength="5" x="259" y="1060.7231">]</text><text fill="#000000" font-family="sans-serif" font-size="13" lengthAdjust="spacing" textLength="8" x="251" y="1075.856">}</text><polygon fill="#181818" points="762.5,1106.0547,772.5,1110.0547,762.5,1114.0547,766.5,1110.0547" style="stroke:#181818;stroke-width:1.0;"/><line style="stroke:#181818;stroke-width:1.0;" x1="240.5" x2="768.5" y1="1110.0547" y2="1110.0547"/><text fill="#000000" font-family="monospace" font-size="13" lengthAdjust="spacing" textLength="505" x="247.5" y="1104.9888">POST&#160;/par&#160;"{"authorization_details":[{"type":"fdx_v1.0","consentRequest":"...."}]</text><text fill="#000000" font-family="sans-serif" font-size="13" lengthAdjust="spacing" textLength="5" x="752.5" y="1104.9888">"</text><line style="stroke:#181818;stroke-width:1.0;" x1="774.5" x2="816.5" y1="1139.1875" y2="1139.1875"/><line style="stroke:#181818;stroke-width:1.0;" x1="816.5" x2="816.5" y1="1139.1875" y2="1152.1875"/><line style="stroke:#181818;stroke-width:1.0;" x1="775.5" x2="816.5" y1="1152.1875" y2="1152.1875"/><polygon fill="#181818" points="785.5,1148.1875,775.5,1152.1875,785.5,1156.1875,781.5,1152.1875" style="stroke:#181818;stroke-width:1.0;"/><text fill="#000000" font-family="sans-serif" font-size="13" lengthAdjust="spacing" textLength="119" x="781.5" y="1134.1216">Validate certificate</text><polygon fill="#181818" points="1296.5,1177.3203,1306.5,1181.3203,1296.5,1185.3203,1300.5,1181.3203" style="stroke:#181818;stroke-width:1.0;"/><line style="stroke:#181818;stroke-width:1.0;" x1="774.5" x2="1302.5" y1="1181.3203" y2="1181.3203"/><text fill="#000000" font-family="monospace" font-size="13" lengthAdjust="spacing" textLength="505" x="781.5" y="1176.2544">POST&#160;/par&#160;"{"authorization_details":[{"type":"fdx_v1.0","consentRequest":"...."}]</text><text fill="#000000" font-family="sans-serif" font-size="13" lengthAdjust="spacing" textLength="5" x="1286.5" y="1176.2544">"</text><polygon fill="#181818" points="785.5,1206.4531,775.5,1210.4531,785.5,1214.4531,781.5,1210.4531" style="stroke:#181818;stroke-width:1.0;"/><line style="stroke:#181818;stroke-width:1.0;stroke-dasharray:2.0,2.0;" x1="779.5" x2="1307.5" y1="1210.4531" y2="1210.4531"/><text fill="#000000" font-family="sans-serif" font-size="13" lengthAdjust="spacing" textLength="115" x="791.5" y="1205.3872">return request_uri</text><polygon fill="#181818" points="948.5,1235.5859,958.5,1239.5859,948.5,1243.5859,952.5,1239.5859" style="stroke:#181818;stroke-width:1.0;"/><line style="stroke:#181818;stroke-width:1.0;stroke-dasharray:2.0,2.0;" x1="774.5" x2="954.5" y1="1239.5859" y2="1239.5859"/><text fill="#000000" font-family="sans-serif" font-size="13" lengthAdjust="spacing" textLength="98" x="781.5" y="1234.52">Create consent</text><polygon fill="#181818" points="785.5,1264.7188,775.5,1268.7188,785.5,1272.7188,781.5,1268.7188" style="stroke:#181818;stroke-width:1.0;"/><line style="stroke:#181818;stroke-width:1.0;stroke-dasharray:2.0,2.0;" x1="779.5" x2="959.5" y1="1268.7188" y2="1268.7188"/><text fill="#000000" font-family="sans-serif" font-size="13" lengthAdjust="spacing" textLength="106" x="791.5" y="1263.6528">Consent created</text><polygon fill="#181818" points="251.5,1293.8516,241.5,1297.8516,251.5,1301.8516,247.5,1297.8516" style="stroke:#181818;stroke-width:1.0;"/><line style="stroke:#181818;stroke-width:1.0;stroke-dasharray:2.0,2.0;" x1="245.5" x2="773.5" y1="1297.8516" y2="1297.8516"/><text fill="#000000" font-family="sans-serif" font-size="13" lengthAdjust="spacing" textLength="115" x="257.5" y="1292.7856">return request_uri</text><rect fill="#EEEEEE" height="3" style="stroke:#EEEEEE;stroke-width:1.0;" width="1854.5" x="0" y="1326.418"/><line style="stroke:#000000;stroke-width:1.0;" x1="0" x2="1854.5" y1="1326.418" y2="1326.418"/><line style="stroke:#000000;stroke-width:1.0;" x1="0" x2="1854.5" y1="1329.418" y2="1329.418"/><rect fill="#EEEEEE" height="23.1328" style="stroke:#000000;stroke-width:2.0;" width="421" x="716.75" y="1315.8516"/><text fill="#000000" font-family="sans-serif" font-size="13" font-weight="bold" lengthAdjust="spacing" textLength="402" x="722.75" y="1331.9185">Part 3: User authentication, consent and authorization</text><path d="M245,1353.9844 L245,1378.9844 L444,1378.9844 L444,1363.9844 L434,1353.9844 L245,1353.9844 " fill="#FEFFDD" style="stroke:#181818;stroke-width:0.5;"/><path d="M434,1353.9844 L434,1363.9844 L444,1363.9844 L434,1353.9844 " fill="#FEFFDD" style="stroke:#181818;stroke-width:0.5;"/><text fill="#000000" font-family="sans-serif" font-size="13" lengthAdjust="spacing" textLength="178" x="251" y="1371.0513">Send Authorization Request</text><polygon fill="#181818" points="1296.5,1401.25,1306.5,1405.25,1296.5,1409.25,1300.5,1405.25" style="stroke:#181818;stroke-width:1.0;"/><line style="stroke:#181818;stroke-width:1.0;" x1="240.5" x2="1302.5" y1="1405.25" y2="1405.25"/><text fill="#000000" font-family="monospace" font-size="13" lengthAdjust="spacing" textLength="187" x="247.5" y="1400.1841">GET&#160;/authorize&amp;request_uri=</text><polygon fill="#181818" points="1677,1430.3828,1687,1434.3828,1677,1438.3828,1681,1434.3828" style="stroke:#181818;stroke-width:1.0;"/><line style="stroke:#181818;stroke-width:1.0;" x1="1308.5" x2="1683" y1="1434.3828" y2="1434.3828"/><text fill="#000000" font-family="monospace" font-size="13" lengthAdjust="spacing" textLength="99" x="1315.5" y="1429.3169">REDIRECT&#160;/login</text><polygon fill="#181818" points="50.5,1459.5156,40.5,1463.5156,50.5,1467.5156,46.5,1463.5156" style="stroke:#181818;stroke-width:1.0;"/><line style="stroke:#181818;stroke-width:1.0;" x1="44.5" x2="1688" y1="1463.5156" y2="1463.5156"/><text fill="#000000" font-family="monospace" font-size="13" lengthAdjust="spacing" textLength="69" x="56.5" y="1458.4497">USER&#160;login</text><polygon fill="#181818" points="1677,1488.6484,1687,1492.6484,1677,1496.6484,1681,1492.6484" style="stroke:#181818;stroke-width:1.0;"/><line style="stroke:#181818;stroke-width:1.0;stroke-dasharray:2.0,2.0;" x1="39.5" x2="1683" y1="1492.6484" y2="1492.6484"/><text fill="#000000" font-family="monospace" font-size="13" lengthAdjust="spacing" textLength="78" x="46.5" y="1487.5825">200&#160;OK&#160;{...}</text><polygon fill="#181818" points="1466.5,1532.9141,1456.5,1536.9141,1466.5,1540.9141,1462.5,1536.9141" style="stroke:#181818;stroke-width:1.0;"/><line style="stroke:#181818;stroke-width:1.0;stroke-dasharray:2.0,2.0;" x1="1460.5" x2="1688" y1="1536.9141" y2="1536.9141"/><text fill="#000000" font-family="sans-serif" font-size="13" lengthAdjust="spacing" textLength="122" x="1472.5" y="1516.7153">Serve Consent and</text><text fill="#000000" font-family="sans-serif" font-size="13" lengthAdjust="spacing" textLength="187" x="1472.5" y="1531.8481">Account Confirmation Screen</text><polygon fill="#181818" points="50.5,1562.0469,40.5,1566.0469,50.5,1570.0469,46.5,1566.0469" style="stroke:#181818;stroke-width:1.0;"/><line style="stroke:#181818;stroke-width:1.0;stroke-dasharray:2.0,2.0;" x1="44.5" x2="1454.5" y1="1566.0469" y2="1566.0469"/><text fill="#000000" font-family="sans-serif" font-size="13" lengthAdjust="spacing" textLength="313" x="56.5" y="1560.981">Serve Consent and Account Confirmation Screen</text><polygon fill="#181818" points="1443.5,1591.1797,1453.5,1595.1797,1443.5,1599.1797,1447.5,1595.1797" style="stroke:#181818;stroke-width:1.0;"/><line style="stroke:#181818;stroke-width:1.0;stroke-dasharray:2.0,2.0;" x1="39.5" x2="1449.5" y1="1595.1797" y2="1595.1797"/><text fill="#000000" font-family="sans-serif" font-size="13" lengthAdjust="spacing" textLength="205" x="46.5" y="1590.1138">"Consent confirmation is correct</text><polygon fill="#181818" points="971.5,1620.3125,961.5,1624.3125,971.5,1628.3125,967.5,1624.3125" style="stroke:#181818;stroke-width:1.0;"/><line style="stroke:#181818;stroke-width:1.0;stroke-dasharray:2.0,2.0;" x1="965.5" x2="1454.5" y1="1624.3125" y2="1624.3125"/><text fill="#000000" font-family="sans-serif" font-size="13" lengthAdjust="spacing" textLength="241" x="977.5" y="1619.2466">Update consent resources and status</text><polygon fill="#181818" points="1443.5,1649.4453,1453.5,1653.4453,1443.5,1657.4453,1447.5,1653.4453" style="stroke:#181818;stroke-width:1.0;"/><line style="stroke:#181818;stroke-width:1.0;stroke-dasharray:2.0,2.0;" x1="960.5" x2="1449.5" y1="1653.4453" y2="1653.4453"/><text fill="#000000" font-family="sans-serif" font-size="13" lengthAdjust="spacing" textLength="110" x="967.5" y="1648.3794">Consent updated</text><polygon fill="#181818" points="1296.5,1678.5781,1306.5,1682.5781,1296.5,1686.5781,1300.5,1682.5781" style="stroke:#181818;stroke-width:1.0;"/><line style="stroke:#181818;stroke-width:1.0;stroke-dasharray:2.0,2.0;" x1="960.5" x2="1302.5" y1="1682.5781" y2="1682.5781"/><text fill="#000000" font-family="sans-serif" font-size="13" lengthAdjust="spacing" textLength="136" x="967.5" y="1677.5122">Redirect with success</text><polygon fill="#181818" points="251.5,1707.7109,241.5,1711.7109,251.5,1715.7109,247.5,1711.7109" style="stroke:#181818;stroke-width:1.0;"/><line style="stroke:#181818;stroke-width:1.0;stroke-dasharray:2.0,2.0;" x1="245.5" x2="1307.5" y1="1711.7109" y2="1711.7109"/><text fill="#000000" font-family="monospace" font-size="13" lengthAdjust="spacing" textLength="133" x="257.5" y="1706.645">200&#160;OK&#160;{"code":"..."}</text><path d="M245,1724.7109 L245,1749.7109 L700,1749.7109 L700,1734.7109 L690,1724.7109 L245,1724.7109 " fill="#FEFFDD" style="stroke:#181818;stroke-width:0.5;"/><path d="M690,1724.7109 L690,1734.7109 L700,1734.7109 L690,1724.7109 " fill="#FEFFDD" style="stroke:#181818;stroke-width:0.5;"/><text fill="#000000" font-family="sans-serif" font-size="13" lengthAdjust="spacing" textLength="434" x="251" y="1741.7778">The DR then obtains the Access Token using the Authorization Code</text><polygon fill="#181818" points="1296.5,1771.9766,1306.5,1775.9766,1296.5,1779.9766,1300.5,1775.9766" style="stroke:#181818;stroke-width:1.0;"/><line style="stroke:#181818;stroke-width:1.0;" x1="240.5" x2="1302.5" y1="1775.9766" y2="1775.9766"/><text fill="#000000" font-family="monospace" font-size="13" lengthAdjust="spacing" textLength="78" x="247.5" y="1770.9106">POST&#160;/token</text><line style="stroke:#181818;stroke-width:1.0;" x1="1308.5" x2="1350.5" y1="1805.1094" y2="1805.1094"/><line style="stroke:#181818;stroke-width:1.0;" x1="1350.5" x2="1350.5" y1="1805.1094" y2="1818.1094"/><line style="stroke:#181818;stroke-width:1.0;" x1="1309.5" x2="1350.5" y1="1818.1094" y2="1818.1094"/><polygon fill="#181818" points="1319.5,1814.1094,1309.5,1818.1094,1319.5,1822.1094,1315.5,1818.1094" style="stroke:#181818;stroke-width:1.0;"/><text fill="#000000" font-family="sans-serif" font-size="13" lengthAdjust="spacing" textLength="76" x="1315.5" y="1800.0435">Verify Client</text><polygon fill="#181818" points="251.5,1858.375,241.5,1862.375,251.5,1866.375,247.5,1862.375" style="stroke:#181818;stroke-width:1.0;"/><line style="stroke:#181818;stroke-width:1.0;" x1="245.5" x2="1307.5" y1="1862.375" y2="1862.375"/><text fill="#000000" font-family="monospace" font-size="13" lengthAdjust="spacing" textLength="46" x="257.5" y="1842.1763">200&#160;OK</text><text fill="#000000" font-family="monospace" font-size="13" lengthAdjust="spacing" textLength="143" x="257.5" y="1857.3091">{"access_token":&#160;"..."}</text><rect fill="#EEEEEE" height="3" style="stroke:#EEEEEE;stroke-width:1.0;" width="1854.5" x="0" y="1890.9414"/><line style="stroke:#000000;stroke-width:1.0;" x1="0" x2="1854.5" y1="1890.9414" y2="1890.9414"/><line style="stroke:#000000;stroke-width:1.0;" x1="0" x2="1854.5" y1="1893.9414" y2="1893.9414"/><rect fill="#EEEEEE" height="23.1328" style="stroke:#000000;stroke-width:2.0;" width="175" x="839.75" y="1880.375"/><text fill="#000000" font-family="sans-serif" font-size="13" font-weight="bold" lengthAdjust="spacing" textLength="156" x="845.75" y="1896.4419">Part 4: Request Data</text><path d="M245,1918.5078 L245,1981.5078 L689,1981.5078 L689,1928.5078 L679,1918.5078 L245,1918.5078 " fill="#FEFFDD" style="stroke:#181818;stroke-width:0.5;"/><path d="M679,1918.5078 L679,1928.5078 L689,1928.5078 L679,1918.5078 " fill="#FEFFDD" style="stroke:#181818;stroke-width:0.5;"/><text fill="#000000" font-family="sans-serif" font-size="13" font-weight="bold" lengthAdjust="spacing" textLength="149" x="251" y="1935.5747">Account Information</text><line style="stroke:#181818;stroke-width:1.0;" x1="246" x2="688" y1="1938.6406" y2="1938.6406"/><text fill="#000000" font-family="sans-serif" font-size="13" lengthAdjust="spacing" textLength="423" x="251" y="1954.7075">DRs use a generic endpoint for Account Information that covers all</text><text fill="#000000" font-family="sans-serif" font-size="13" lengthAdjust="spacing" textLength="310" x="251" y="1969.8403">account types (checking, credit card, loans, etc).</text><polygon fill="#181818" points="762.5,2004.0391,772.5,2008.0391,762.5,2012.0391,766.5,2008.0391" style="stroke:#181818;stroke-width:1.0;"/><line style="stroke:#181818;stroke-width:1.0;" x1="240.5" x2="768.5" y1="2008.0391" y2="2008.0391"/><text fill="#000000" font-family="monospace" font-size="13" lengthAdjust="spacing" textLength="212" x="247.5" y="2002.9731">GET&#160;/fdx/{version}/core/accounts</text><path d="M779,2021.0391 L779,2046.0391 L943,2046.0391 L943,2031.0391 L933,2021.0391 L779,2021.0391 " fill="#FEFFDD" style="stroke:#181818;stroke-width:0.5;"/><path d="M933,2021.0391 L933,2031.0391 L943,2031.0391 L933,2021.0391 " fill="#FEFFDD" style="stroke:#181818;stroke-width:0.5;"/><text fill="#000000" font-family="sans-serif" font-size="13" lengthAdjust="spacing" textLength="143" x="785" y="2038.106">Validate Access Token</text><line style="stroke:#181818;stroke-width:1.0;stroke-dasharray:2.0,2.0;" x1="774.5" x2="816.5" y1="2072.3047" y2="2072.3047"/><line style="stroke:#181818;stroke-width:1.0;stroke-dasharray:2.0,2.0;" x1="816.5" x2="816.5" y1="2072.3047" y2="2085.3047"/><line style="stroke:#181818;stroke-width:1.0;stroke-dasharray:2.0,2.0;" x1="775.5" x2="816.5" y1="2085.3047" y2="2085.3047"/><polygon fill="#181818" points="785.5,2081.3047,775.5,2085.3047,785.5,2089.3047,781.5,2085.3047" style="stroke:#181818;stroke-width:1.0;"/><text fill="#000000" font-family="sans-serif" font-size="13" lengthAdjust="spacing" textLength="172" x="781.5" y="2067.2388">Verify Access Token claims</text><polygon fill="#181818" points="1066.5,2110.4375,1076.5,2114.4375,1066.5,2118.4375,1070.5,2114.4375" style="stroke:#181818;stroke-width:1.0;"/><line style="stroke:#181818;stroke-width:1.0;" x1="774.5" x2="1072.5" y1="2114.4375" y2="2114.4375"/><text fill="#000000" font-family="monospace" font-size="13" lengthAdjust="spacing" textLength="212" x="781.5" y="2109.3716">GET&#160;/fdx/{version}/core/accounts</text><polygon fill="#181818" points="1758.5,2139.5703,1768.5,2143.5703,1758.5,2147.5703,1762.5,2143.5703" style="stroke:#181818;stroke-width:1.0;"/><line style="stroke:#181818;stroke-width:1.0;" x1="1078.5" x2="1764.5" y1="2143.5703" y2="2143.5703"/><text fill="#000000" font-family="monospace" font-size="13" lengthAdjust="spacing" textLength="212" x="1085.5" y="2138.5044">GET&#160;/fdx/{version}/core/accounts</text><polygon fill="#181818" points="1089.5,2183.8359,1079.5,2187.8359,1089.5,2191.8359,1085.5,2187.8359" style="stroke:#181818;stroke-width:1.0;"/><line style="stroke:#181818;stroke-width:1.0;" x1="1083.5" x2="1769.5" y1="2187.8359" y2="2187.8359"/><text fill="#000000" font-family="monospace" font-size="13" lengthAdjust="spacing" textLength="46" x="1095.5" y="2167.6372">200&#160;OK</text><text fill="#000000" font-family="monospace" font-size="13" lengthAdjust="spacing" textLength="114" x="1095.5" y="2182.77">{"accounts":&#160;"..."}</text><polygon fill="#181818" points="785.5,2228.1016,775.5,2232.1016,785.5,2236.1016,781.5,2232.1016" style="stroke:#181818;stroke-width:1.0;"/><line style="stroke:#181818;stroke-width:1.0;" x1="779.5" x2="1077.5" y1="2232.1016" y2="2232.1016"/><text fill="#000000" font-family="monospace" font-size="13" lengthAdjust="spacing" textLength="46" x="791.5" y="2211.9028">200&#160;OK</text><text fill="#000000" font-family="monospace" font-size="13" lengthAdjust="spacing" textLength="114" x="791.5" y="2227.0356">{"accounts":&#160;"..."}</text><polygon fill="#181818" points="251.5,2272.3672,241.5,2276.3672,251.5,2280.3672,247.5,2276.3672" style="stroke:#181818;stroke-width:1.0;"/><line style="stroke:#181818;stroke-width:1.0;" x1="245.5" x2="773.5" y1="2276.3672" y2="2276.3672"/><text fill="#000000" font-family="monospace" font-size="13" lengthAdjust="spacing" textLength="46" x="257.5" y="2256.1685">200&#160;OK</text><text fill="#000000" font-family="monospace" font-size="13" lengthAdjust="spacing" textLength="114" x="257.5" y="2271.3013">{"accounts":&#160;"..."}</text><!--SRC=[lLTjRzis4FwkNt5GWMqDuYJjkcuBbW6ExGR6ciImdNP3NGICHDjQPD8JgIHUcl- -vqX9bcptvTCI82_alJntzzpnR1ERIfee_Wu24LcTKTXJCLqPcOKa30r6Ly5IP3Q9agLGbiAki6AYXXB_9r9P9zGT1i6DVg3sOfacqnNrbPMpJDX4Aths-atxbswdQQGzw4_KcR3oNgoS1HnSdxN7lVVjlvgI7QqCt4pKkL1Y9XUboyxbnQXtCTuKpYIT2dMRg1cYWgwI79FNEEq44g41g4VRZs4iiIiIE6r7aJGGqifcEgLdlxwANlqSDyrN2cii4zLgjIQgdTkvpf9_VSWZcTqLwUktptV6GsUPOEtsSbaFv_fzxxG9iX4IfDCaSauCFOj_4gzlDY0MaXDLOfseGQRlahZ0qnuDHWFdPRVQQ6MiN9YQB2gpHZI78PfgRVc_xmrqO4OiA9PJaQVs3R9t8HQIXlf6Mnsi1Kxrmq34CGVnyYW8bBQIicGsjwIdZcENoDXT8k-3avEJO3nF3CM9cB6gcPE-DsJdae2ZPNMBuTpB6_fRvvcIAm3AIDzOaIYsNsQOgseiHub3godIQGes1AYqpd7VLz1R-8h58FK1ZU5YfaLAy0w5PIeYwVn6Uh7K2aODJJEzS6VjB9ed5WPp5AX2doW8W_qFzi1bZGCD41CD08HU7ADLwD91DLJsMOKOaU_Ap5Pa5ORA0W3d9XTfkYATMyDLudiJwQLaEy0vLs1EoXbHiSXYuy8DEhcnUW4BlOUbpD3GYFWiXtwQA6a8uRpf_ebVd2f3StrVWJ1pdQUWXKIX35Arah5BkI-4Z0-2Jvy-1PnIiyImc2QHSKYujCjCksuJcSEPoIcp7A6prNj5VEJBmTE6gc53FtI7pn5i88p95t28Ait5dQG4WyVr8v-nX_i4lvHBmcmTJe64mQsBWnnJwtSKvXYKYBcz9DJ1EXWtSuR8x71YlxLQJgxh8yP4W4SCf8bA3W2OvLWBEH5kdCXuei3DfLWnjk9g8M9PTug4JfDiWIIphOQV4IVy1hr9HZ9tcQecogHKkmmq1TUiU-bOryaa8ZEkHczrFCEV9VmTnCD4VuyK5kpt5NVLgv6khBGxXOT8AAJq7h_Jr9q5kyOYZteIjh2SPK3ha1_G1IDmDqmHZNnGKBAj93YOd77XA-YOKua52GojP9dXo2U42UdzEFkraWDicJkN5VBMk52f5l6EP8nOUP235SsOXlAVN1fRSHtJZZ9_HkTNex6R1iWIqawYeHbBdAU6t7oK2ClPU0o8meRWTI4O7jC7N18zkfyGiwkbn6auZH-kxruS78NxvKrHiG8SP4eTtCMvVvZ7XVRbHUzwt3_lLTgGIRM-lH7HxG0ZGSUGUdrKkysamU05loj8_kknzdTDh7JKxdGkhox6DJyU3vgcas8CoMpJeBilrAwxlN6x_xRNtT27n7ZOlXYrE-C-tj2mSVcnzjzJi7dgJ_Zdn-1fYnsrZGJWmy4bYdd8vGqVFrUW3uz5JMebsQf5U82lyEbZ68P1pSUMotSYJMBcPYJnX4tTNDfKm7Rnls3ZUUHyPHBFdIePVfrdIHCIC1MRJDLQXOyjUskveiKZ9nzp-lc-aOmTVglnzkEn7qSSEEyyVZ_QhyOM3xncw-qSTwx3TpVt9ZMAj9_raFNIilok1ku4-OEGgscvSB76iDVj3tiTgALwbYZESddDifZfB7KrwWsf571pVjFEowCZklo37b6jfwQHTG6yh9kvzPK8AsUn_nJFHZ6R_QjIqtMs7A8j6_Gb4oNW1engxOtg6XZgnGkmvRXYnzKohh68gjbJhdSsDwNojjlIQ-wCn0r1LyIXZ1Ft0l6-G2PthxOlNV50h9EDRecbxv6GixvDeR5_1vc6nUFerzRYiyLOt-8YDsuVvUC6sJgm_Zcc-GQthBzcbhjxXmcD3roTbDSZtpgbaiSTOZa9UImu3DVU1gwhACesUdLSyjqlNMYIhG3tzdOiptjx0Ju3mJS_qNZ0QIOLK4MyhVjNdFVpNLktdGjc19O2b3DDyVdJo_2WClH3D9SHVohPvz4GuvMFiBVkepE4CliaRVJyu6jJsxKe1jxX8pk1pwT3C4uU5fuC4j0Ciluvj9h0zVgjFMuElkRqzdLfL3vAHR8mcpCS7qk_4IaarnC5LhvHhPAlUTlYXXUkyQ9qripdr_Ksegktq9VK_WC0]--></g></svg>