<?xml version="1.0" encoding="utf-8"?>
<!-- Generator: Adobe Illustrator 23.0.3, SVG Export Plug-In . SVG Version: 6.00 Build 0)  -->
<svg version="1.1" id="horizontal_color" xmlns="http://www.w3.org/2000/svg" xmlns:xlink="http://www.w3.org/1999/xlink" x="0px"
	 y="0px" viewBox="0 0 516 230.9" style="enable-background:new 0 0 516 230.9;" xml:space="preserve">
<style type="text/css">
	.st0{fill:none;}
	.st1{fill:#FFFFFF;}
	.st2{fill:#D22630;}
</style>
<rect y="0" class="st0" width="516" height="230.9"/>
<path class="st1" d="M57.8,137.6l13-1.9c3-0.4,4-1.9,4-3.8c0-3.8-2.9-6.9-8.9-6.9c-6.2,0-9.7,4-10.1,8.6l-12.7-2.7
	c0.9-8.3,8.5-17.4,22.7-17.4c16.8,0,23,9.5,23,20.1v26c0,2.8,0.2,5.6,0.6,8.4H76.3c-0.4-2.1-0.5-4.2-0.5-6.4
	c-2.7,4.2-7.8,7.9-15.6,7.9c-11.3,0-18.2-7.6-18.2-15.9C42,144.1,49,138.9,57.8,137.6z M74.8,146.6v-2.4L62.9,146
	c-3.7,0.5-6.6,2.6-6.6,6.7c0,3.1,2.3,6.1,6.9,6.1C69.2,158.9,74.8,156,74.8,146.6L74.8,146.6z M109.8,141.4L91,115.1h17
	c1.8,2.9,8.7,12.8,10.5,15.7l10.4-15.7h16.3L126.7,141l19.1,27H129l-11-16.2c-1.9,2.9-9,13.3-10.9,16.3H90.9L109.8,141.4z
	 M194.8,115.1l11.4,34.1l9.8-34.1h14.2L213.6,168h-14.4l-12.4-36.1L174.7,168h-14.5l-16.9-52.9h15.1l9.8,34l11.5-34
	C179.7,115.1,194.8,115.1,194.8,115.1z M244.7,137.5l13-1.9c3-0.4,4-1.9,4-3.8c0-3.8-2.9-6.9-8.9-6.9c-6.2,0-9.7,4-10.1,8.6
	l-12.7-2.7c0.9-8.3,8.5-17.4,22.7-17.4c16.8,0,23,9.5,23,20.1v26c0,2.8,0.2,5.6,0.7,8.4h-13.2c-0.4-2.1-0.5-4.2-0.5-6.4
	c-2.7,4.2-7.8,7.9-15.6,7.9c-11.3,0-18.2-7.6-18.2-15.9C228.8,144.1,235.8,138.9,244.7,137.5L244.7,137.5z M261.7,146.5v-2.4
	l-11.9,1.8c-3.7,0.5-6.6,2.6-6.6,6.7c0,3.1,2.3,6.1,6.9,6.1C256.1,158.9,261.7,156,261.7,146.5L261.7,146.5z M284.6,188.8l12.5-27.5
	L274.6,115h16l14.1,31l13-31H333l-33.2,73.8H284.6z"/>
<path class="st2" d="M461.5,89.4v27L342.9,60V42l103.9,49.5v-27l27.2,13v18L461.5,89.4z M369.5,108.6v18l19,9L357.9,168h20.3
	l36.3-38L369.5,108.6z M461.6,125.4L357.1,75.7v18l83.2,39.6L461.6,125.4z"/>
</svg>
